<svg xmlns="http://www.w3.org/2000/svg" viewBox="0 0 500 500"><g id="freepik--Table--inject-310"><path d="M45.75,414.34c130.86-.61,277.64-.62,408.5,0-130.86.61-277.64.61-408.5,0Z" style="fill:#263238"></path></g><g id="freepik--Character--inject-310"><path d="M188.91,238.48c1.48,40.06,23.28,128.21,40.63,143.87,11.18,10.08,59.33,22.93,86.61,24.2,6.25.29,20.82-71.9,12.41-72.7-20.95-2-53.53-8.1-60.73-12.25-5.62-3.24-18.78-31.57-55.45-86.1C198.75,215.22,188.07,215.91,188.91,238.48Z" style="fill:#ad6359"></path><path d="M301,400c1.14.7,17.28,10.53,27.43,14.4,7.58,2.88,29.62,10.59,33.63,2.56,2.73-5.47-9.69-11.53-18.39-16-4.58-2.36-10-7.8-8.37-10.73,2.88-5.13,14.64,1.21,22.29,6.53,14.78,10.28,34.13,28.19,44.25,21.09,3.82-2.69.1-8.44-5.55-14.25,9.37,7,19.49,12.93,23.85,10.12,2.51-1.6,2.82-4.06,1.73-7,3,1.24,5.68,1.26,7.72-.57,3.49-3.1,2.33-8.19-.77-13.56a3.83,3.83,0,0,0,3.07-1.67c7.64-9.81-24-42.34-35.5-46.09-33.95-11-71-11-71-11C310.92,343.55,301,400,301,400Z" style="fill:#ad6359"></path><path d="M354.54,372.27A58.88,58.88,0,0,1,376.91,383c8.31,6.51,13.58,13.76,20.38,21.19.18.19-.11.48-.29.28-3.25-3.53-16.79-16.92-20.32-20a56.1,56.1,0,0,0-22.18-12.11A.07.07,0,0,1,354.54,372.27Z" style="fill:#263238"></path><path d="M362.19,358.11c8.9,3.22,18,6.5,26.11,11.49,8.86,5.46,15.47,13.73,22,21.7q5.87,7.17,11.4,14.61c.16.21-.13.49-.3.28q-9.88-12.33-20.51-24.05a74.24,74.24,0,0,0-23.25-17.44c-5-2.41-10.26-4.43-15.48-6.44C362.05,358.23,362.09,358.07,362.19,358.11Z" style="fill:#263238"></path><path d="M373,346.05c8.69,2.54,16.28,4.72,23.72,10.09,9.85,7.12,19,18.5,22.2,22.53,3.54,4.45,6.93,9,10.25,13.64.13.19-.19.43-.33.24a294.1,294.1,0,0,0-24.8-28.9,58.44,58.44,0,0,0-14.28-11c-5.3-2.82-11.09-4.64-16.78-6.51C372.9,346.1,372.92,346,373,346.05Z" style="fill:#263238"></path><path d="M198.66,331.57,251,284.84s-27.86-43.67-47.11-63.08c-10.8-10.87-19.38-2.63-20,11.21C181.89,281.42,198.66,331.57,198.66,331.57Z" style="fill:#FFC727"></path><path d="M198.66,331.57,251,284.84s-27.86-43.67-47.11-63.08c-10.8-10.87-19.38-2.63-20,11.21C181.89,281.42,198.66,331.57,198.66,331.57Z" style="fill:#ebebeb"></path><path d="M248.33,287.18l-49.67,44.39s-16.77-50.15-14.78-98.6c.34-8.07,3.39-14.24,8-15.82Z" style="opacity:0.1"></path><path d="M241.78,278.24c-8.64,6.53-31.56,24.9-44.9,38.78-.08.09.2.43.29.36,12.84-9.88,37-31.38,45-38.63C242.35,278.61,241.94,278.12,241.78,278.24Z" style="fill:#263238"></path><polygon points="199.39 337.59 193.5 318.58 244.06 272.47 255.16 287.99 199.39 337.59" style="fill:#FFC727"></polygon><path d="M239,414.08l-181.51-.19S96,276.73,148.23,219.17c16.57-18.27,43.56-10.85,53.32.11C226.33,247.13,239.56,413.46,239,414.08Z" style="fill:#ebebeb"></path><path d="M137.92,230.36c-40.8,56.4-85.58,160-71.06,179.18,16.17,21.35,74.42-49.8,71.81-52.91-2.22-2.64,13.44-69.18,24.42-117.47S148,216.42,137.92,230.36Z" style="fill:#ad6359"></path><path d="M87.75,298.15l70,3s10.48-50.79,10.21-78.16c-.15-15.33-9.09-14.75-19.14-5.22C113.63,251.15,87.75,298.15,87.75,298.15Z" style="fill:#ebebeb"></path><path d="M155.76,290c-10.73-1.36-39.93-4.2-59.15-3.57-.12,0-.16.45,0,.46,16.07,1.89,48.33,3.34,59.14,3.76C155.91,290.7,156,290.06,155.76,290Z" style="fill:#263238"></path><path d="M149.2,300.81q4.28-.17,8.55-.16l-.54.43c1-7.73,2.28-15.41,3.71-23.07s3-15.27,5-22.84c-.76,7.77-1.91,15.48-3.19,23.16s-2.77,15.34-4.49,22.94l-.1.47-.43,0Q153.45,301.34,149.2,300.81Z" style="fill:#263238"></path><path d="M163.4,270.53a21.27,21.27,0,0,1,1.75-4.63,30.32,30.32,0,0,1,2.57-4.26,9,9,0,0,1-.5,2.46,14.8,14.8,0,0,1-.94,2.3A16.09,16.09,0,0,1,163.4,270.53Z" style="fill:#263238"></path><polygon points="84.42 301.18 93.86 283.74 160.97 288.14 157.56 306.9 84.42 301.18" style="fill:#FFC727"></polygon><path d="M191.41,250.11c-11.11-2.57-20.67-26.18-21.32-41.81,0-1.07,20.15-33.06,23.49-39.81.68-1.39,37.33,31.27,37.33,31.27s-11.18,12.1-16.93,23.91C213.51,224.66,202.14,252.59,191.41,250.11Z" style="fill:#ad6359"></path><path d="M230.91,199.76s-14.17,18.6-19.93,30.41c-.11.24-24.93-11.64-26.23-46.55,4.42-7.28,7.48-12.39,8.82-15.13C194.26,167.11,230.91,199.76,230.91,199.76Z" style="fill:#263238"></path><path d="M190.69,123.34c-8.53,15.33-10.05,64.59-.65,77.66,13.63,19,41,26.37,58.4,8.83,16.85-17,17.69-81.24,6.72-93.64C239,97.92,203.29,100.69,190.69,123.34Z" style="fill:#ad6359"></path><path d="M227,167.47c0-.12-.26.15-.26.29,0,3.32-.59,7.12-3.63,8.11-.1,0-.09.2,0,.19C226.79,175.67,227.5,170.62,227,167.47Z" style="fill:#263238"></path><path d="M224.14,163.9c-5.32-.59-6.12,10.09-1.19,10.65S228.6,164.4,224.14,163.9Z" style="fill:#263238"></path><path d="M246.1,169.45c0-.13.25.17.24.31-.36,3.3-.2,7.14,2.71,8.46.09.05.07.21,0,.19C245.39,177.62,245.24,172.52,246.1,169.45Z" style="fill:#263238"></path><path d="M249.32,166.21c5.35,0,5,10.7,0,10.71S244.83,166.21,249.32,166.21Z" style="fill:#263238"></path><path d="M219.83,156.67c1.36.65,2.71,1,4.12,1.55,1.59.57,2.79,1.2,4.5.77a2.26,2.26,0,0,0,1.49-2.33c-.32-2.13-2.09-3.31-4-4.09a8.24,8.24,0,0,0-5.94-.32C218,152.87,218.05,155.8,219.83,156.67Z" style="fill:#263238"></path><path d="M254,158.15a41.23,41.23,0,0,1-4-1.73c-1.55-.69-2.85-1.07-3.79-2.56a2.25,2.25,0,0,1,.55-2.71c1.7-1.31,3.79-1,5.69-.2a8.23,8.23,0,0,1,4.5,3.88C257.94,156.69,255.87,158.77,254,158.15Z" style="fill:#263238"></path><path d="M221.73,197.23c.73.83,1.44,2,2.64,2.15a8.85,8.85,0,0,0,3.62-.57.12.12,0,0,1,.13.18,4.46,4.46,0,0,1-4.34,1.48c-1.48-.37-2.12-1.72-2.38-3.12C221.36,197.16,221.62,197.1,221.73,197.23Z" style="fill:#263238"></path><path d="M226,187.57a11.25,11.25,0,0,0,7.14,5.58,14.1,14.1,0,0,0,4,.49,3.38,3.38,0,0,0,.78,0,6.51,6.51,0,0,0,.73-.06.82.82,0,0,0,.72-.69v0a1.29,1.29,0,0,0,0-.34v-.32c.26-2.54.31-6.44.31-6.44.89.54,5.48,3,5.5,1.69.17-11.07.36-23.38-1.82-34.44a.31.31,0,0,0-.61,0c-.58,10.64.71,21.3.3,32-1.47-.69-3.86-1.94-5.2-2-.37.08,0,7.53-.16,8.66a.34.34,0,0,1,0,.12c-4.32.23-7.45-1.3-11.39-4.49C226.05,187.09,225.77,187.3,226,187.57Z" style="fill:#263238"></path><path d="M182.13,162c12,3.6,21.67-9.52,21.45-21.88,0,0,31.49,11.61,38.92-14.1A26.21,26.21,0,0,0,261,142.42l1.46,10.42c3.55-.21,9.23-8.88,2.75-18.13,0,0,2.36-13.12-5.46-23.07a18.17,18.17,0,0,0-18.49-7,27.54,27.54,0,0,0-18.49-9.23c-12.31-1.17-19.68,8.63-19.68,8.63s-16.78-.54-22.09,10.27a24.27,24.27,0,0,0-1.13,19.79s-5,3.58-5.19,13.79C174.56,154.49,178.53,160.87,182.13,162Z" style="fill:#263238"></path><path d="M242.3,123.49a32,32,0,0,1-1.36,6.39,26.43,26.43,0,0,1-2.57,5.89,16.85,16.85,0,0,1-9.62,7.66c-4,1.46-8.41.84-12.64.31-2.09-.54-4.24-.93-6.31-1.59s-4.12-1.43-6.22-2.08c2,1,4,1.86,6,2.8s4.2,1.34,6.31,2c4.33.79,8.94,1.45,13.35,0a17.64,17.64,0,0,0,10.19-8.55A26.71,26.71,0,0,0,242.3,123.49Z" style="fill:#263238"></path><path d="M203.06,104.07A30.89,30.89,0,0,0,190.5,104a18.46,18.46,0,0,0-11,6.4,20.24,20.24,0,0,0-2.91,5.75,18.93,18.93,0,0,0-1.1,6.32,17.24,17.24,0,0,0,4.32,11.68,18.88,18.88,0,0,1-3.13-11.64,21,21,0,0,1,4-11.17,15.75,15.75,0,0,1,4.43-3.93,23.39,23.39,0,0,1,5.6-2.26A39.07,39.07,0,0,1,203.06,104.07Z" style="fill:#263238"></path><path d="M241.23,104.67a31.26,31.26,0,0,1,10,.3,19.1,19.1,0,0,1,8.7,4.09,19.38,19.38,0,0,1,5.31,8,34.17,34.17,0,0,1,1.86,9.8,24.82,24.82,0,0,0-.74-10.16,17.16,17.16,0,0,0-14.93-12.93A23.78,23.78,0,0,0,241.23,104.67Z" style="fill:#263238"></path><path d="M255.64,142.32a34.87,34.87,0,0,1-8.65-7.51,21.12,21.12,0,0,1-2.91-4.82,26.2,26.2,0,0,1-1.62-5.55,14.17,14.17,0,0,0,.51,5.95,15.44,15.44,0,0,0,2.81,5.37,19.38,19.38,0,0,0,4.46,4.07A17.67,17.67,0,0,0,255.64,142.32Z" style="fill:#263238"></path><path d="M217,182.32a15.24,15.24,0,1,1,18.67-15.18h0A15.27,15.27,0,0,1,217,182.32Zm6.41-27.71a13.47,13.47,0,0,0-3.26-.34,13.22,13.22,0,1,0,3.26.34Z" style="fill:#FFC727"></path><path d="M251.78,186c-5.68-1.31-9.49-8.32-8.61-16.23a18.18,18.18,0,0,1,4.37-10.23,9.49,9.49,0,0,1,16.15,1.79,18.23,18.23,0,0,1,2,11c-.93,8.34-6.74,14.58-13,13.89A8,8,0,0,1,251.78,186Zm4.88-28a4.83,4.83,0,0,0-.76-.13,8.12,8.12,0,0,0-6.85,3,16.21,16.21,0,0,0-3.86,9.09c-.8,7.23,2.68,13.58,7.8,14.14s9.9-4.86,10.7-12.09a16.11,16.11,0,0,0-1.77-9.71A8.35,8.35,0,0,0,256.66,158Z" style="fill:#FFC727"></path><path d="M235,168.83l-1.13-1.69c2.51-1.68,8.11-3.68,11.37.69L243.58,169C240.66,165.13,235.2,168.68,235,168.83Z" style="fill:#FFC727"></path><path d="M171.34,165.93l-1.7-1.13c.53-.79,5.28-7.73,9.88-8,4.31-.21,26.88,4.66,28,4.9l-.41,2c-7.7-1.6-24.18-5-27.5-4.86C176.59,159,172.61,164,171.34,165.93Z" style="fill:#FFC727"></path><path d="M194.39,163.67s-7.78-17.48-15.5-15-4,26.36,3.64,31a8.5,8.5,0,0,0,12.05-2.32Z" style="fill:#ad6359"></path><path d="M180.14,155.49a.12.12,0,0,0-.09.21c5.3,3.45,7.29,9.36,8.34,15.3-1.3-2.46-3.4-4.07-6.64-2.59-.17.08-.08.34.09.34a5.23,5.23,0,0,1,5.3,2.88,25.08,25.08,0,0,1,1.82,5.09c.17.57,1.15.47,1.07-.16a.59.59,0,0,1,0-.14C191.57,169.12,187.86,157.76,180.14,155.49Z" style="fill:#263238"></path><path d="M214.24,224.66l-16.13,20-28.32-38.5-10.94,9.49s24.74,58.26,25.29,55.87l14.29-21.42L212,268.41l4.46-40.34Z" style="fill:#FFC727"></path><path d="M215.34,248.59c.52-6.68,1.22-13.4,1.42-20.1,0-.24-.34-.4-.44-.13-2.24,6.2-4.07,31.78-5,37.85l-.06-.08c-.56-.79-12.69-16.18-12.86-16-2.91,3.31-13.37,18.9-14.14,20.34-3.91-9.25-19.13-43-24-52a.23.23,0,0,0-.43.17c3.24,9.64,23.27,55.06,23.69,55,.24.25,13.22-18.93,15-22.66,2,3.26,14,20.39,14.16,19.41A208.07,208.07,0,0,0,215.34,248.59Z" style="fill:#263238"></path><polygon points="319.6 365.71 300.81 380.24 230.84 290.6 249.63 276.06 319.6 365.71" style="fill:#FFC727"></polygon><g style="opacity:0.1"><path d="M314,366.34c-21.2-26.37-44.72-56.18-65.44-82.93,21.21,26.37,44.72,56.18,65.44,82.93Z"></path><path d="M310.53,369c-21.2-26.38-44.72-56.18-65.43-82.94,21.2,26.38,44.71,56.18,65.43,82.94Z"></path><path d="M307.12,371.57c-21.21-26.37-44.72-56.18-65.44-82.93,21.2,26.37,44.71,56.18,65.44,82.93Z"></path><path d="M303.7,374.19C282.5,347.81,259,318,238.26,291.25c21.2,26.38,44.72,56.18,65.44,82.94Z"></path></g><path d="M222.75,280.74s-10.27-10.68.38-18.92,18.41,4.38,18.41,4.38Z" style="fill:#ff9abb"></path><rect x="220.65" y="272.7" width="27.73" height="6.73" transform="translate(-119.9 201.23) rotate(-37.73)" style="fill:#a6a6a6"></rect><rect x="225.2" y="278.59" width="27.73" height="6.73" transform="translate(-122.55 205.25) rotate(-37.73)" style="fill:#a6a6a6"></rect><path d="M319.61,365.7l3.38,19,1.14,6.25-5.81-2.64-17.52-8-.21-4.2s3.9,1.28,4,1.29l-.21-4.2s3.9,1.28,4,1.29l-.25-4.17s3.94,1.25,4,1.26l-.25-4.17s3.94,1.25,4,1.26l-.25-4.17S319.53,365.69,319.61,365.7Z" style="fill:#FFC727"></path><path d="M319.61,365.7l3.38,19,1.14,6.25-5.81-2.64-17.52-8-.21-4.2s3.9,1.28,4,1.29l-.21-4.2s3.9,1.28,4,1.29l-.25-4.17s3.94,1.25,4,1.26l-.25-4.17s3.94,1.25,4,1.26l-.25-4.17S319.53,365.69,319.61,365.7Z" style="fill:#fff;opacity:0.8"></path><polygon points="322.99 384.68 324.13 390.94 318.32 388.29 322.99 384.68" style="fill:#263238"></polygon><path d="M71.37,412.62c17.47,8,71.83-4.92,143.54-30.3,9.92-3.51-22.66-71.31-33.45-68.1-13.59,4-65.45,22.65-69.07,24.49C81.85,354.24,59.52,407.22,71.37,412.62Z" style="fill:#ad6359"></path><path d="M163.44,323.32s4.24-2.16,24.78-17.18c14.2-10.39,55.43-26.62,97.17-.1,16,10.17,15.84,25.82-2.65,18.22-13-5.36-21.58-10.19-26.32-10.75,0,0,10.49,18.83,5.11,30.1-2.4,5-9.28,18.64-16.15,28.46a48.24,48.24,0,0,1-5.6-2.55,26.23,26.23,0,0,1-24.87,12.8Z" style="fill:#ad6359"></path><path d="M203.35,298.39c9.19.79,28.64,2.8,44,10,17,8,47.71,27.91,41.69,40.42-4.4,9.18-16.78,2.6-16.78,2.6s10.94,10.91,5.14,18.33c-5.28,6.76-14.55,1.09-14.55,1.09s5.5,7.76-.84,13.29c-7.63,6.66-17.9-10.7-31.45-10.64C227.49,373.47,203.35,298.39,203.35,298.39Z" style="fill:#ad6359"></path><path d="M235.9,325c8.52,2.16,26.61,12,36.3,26,.22.32.1.66-.16.41a184.43,184.43,0,0,0-36.21-26.27A.09.09,0,0,1,235.9,325Z" style="fill:#263238"></path><path d="M228.36,342.39C235.52,345,253.71,356,263,370.53c.21.33.07.66-.19.4-14-14.33-28-24.35-34.58-28.39C228.19,342.49,228.27,342.35,228.36,342.39Z" style="fill:#263238"></path><path d="M241.37,291.74c16.48.05,39.26,7.81,51.26,19.34,10.38,10.45,4.55,19.78-9.35,14.59-4.45-1.47-8.29-4.21-12.58-6a121.22,121.22,0,0,0-12.92-4.77l.72-1.7a156.44,156.44,0,0,1,14.22,9.65c6.82,5.21,14.62,10.43,17.36,19.07,1.47,4.45-.34,10.11-4.88,12-4.43,1.68-9.13,0-13.05-2.19l1.08-1.42c4,4.39,8,11.43,6.19,17.47-2.63,7-11.33,6.9-16.9,3.8l.94-1a18.24,18.24,0,0,1,1.87,5.32,8,8,0,0,1-4.83,9.54c-3.73,1.48-7.59-.52-10.65-2.5-4.53-2.87-8.54-6.87-13.8-8.3l.27-.09a27.83,27.83,0,0,1-3.73,3.06,25.07,25.07,0,0,1-13.37,4.7c6.34-.44,12.27-3.68,16.68-8.14l.11-.12a18.55,18.55,0,0,1,5.26,2.12c4.69,2.6,8.75,6.52,13.85,8.26a7,7,0,0,0,8.55-3.35c1.37-3.12.09-6.92-1.43-9.8l-1.06-1.95,2,1A15.23,15.23,0,0,0,271.6,372a7.31,7.31,0,0,0,6.44-8.89,23.94,23.94,0,0,0-6-11.5l-5-4.84c4,2.13,9.13,5.74,13.72,5.95,5.73.73,9.29-5.1,7.51-10.26s-5.75-9.39-10-12.82-8.94-7-13.57-10.22c-4-3-10.21-6.36-14.58-8.88,6.87,2.2,14.82,4.51,21.32,7.51,4.25,1.8,8.06,4.55,12.43,6,12.49,4.65,16.81-2.57,7.83-12.06-11.46-11.39-34.23-19.7-50.31-20.26Z" style="fill:#263238"></path><path d="M88.91,361.14C91.06,358,97.33,348.2,108.27,341c9.55-6.25,27.53-12.28,35-14.07.18,0,.29.16.11.25-6.24,3-23,9-33.25,15.49a95.71,95.71,0,0,0-21,18.58C89,361.42,88.81,361.28,88.91,361.14Z" style="fill:#263238"></path></g><g id="freepik--Exam--inject-310"><path d="M130.22,424l94.29,40.23,204-15.8-95.68-35s-60.43-1.34-63.27-1.15-29.88,3.38-29.88,3.38-37.47,0-40,.16S130.22,424,130.22,424Z" style="fill:#fff"></path><path d="M130.22,424l94.32,40.15c-.19,0,204-16,204-16l-.07.48s-95.82-35.17-95.59-35.1c-8.83-.19-50.51-1.11-58.33-1.19a56.31,56.31,0,0,0-5.82.08l-5.8.65-23.19,2.61c-4.91,0-30,0-34.38,0a65.52,65.52,0,0,0-6.86.23l-68.26,8Zm0,0c10.54-1.27,58.94-7,68.25-8.13a67.93,67.93,0,0,1,6.87-.25c4.17,0,29.62-.09,34.36-.09l23.19-2.65,5.8-.66a54,54,0,0,1,5.84-.09c7.61.07,49.82.93,58.33,1.09.06,0,95.71,35,95.76,35l1.09.4-1.16.09s-204.06,15.65-204.08,15.63L130.22,424Z" style="fill:#ebebeb"></path><path d="M239.71,415.6q11.1,5.19,22.33,10.3l22.56,10.17,22.77,10q11.42,5,23,9.9-11.08-5.19-22.33-10.3l-22.56-10.17-22.77-10Q251.29,420.51,239.71,415.6Z" style="fill:#dbdbdb"></path><path d="M164.91,430.84q10.67-1.14,21.25-2.38L207.31,426l5.28-.63c1.8-.19,3.45-.46,5.27-.49l11-.35q11-.35,22.06-.79-11.14,0-22.25.22c-3.7,0-7.39.15-11.09.25-1.9,0-3.72.3-5.47.47l-5.31.62c-7,.88-14.06,1.74-21,2.68S171.84,429.82,164.91,430.84Z" style="fill:#dbdbdb"></path><path d="M178.09,436.08Q188.56,435,199,433.75l20.77-2.47c3.45-.39,7-.89,10.34-1.17,3.56-.15,7.21-.23,10.81-.36q10.85-.35,21.66-.79-11,0-21.85.21c-3.64.06-7.24.15-10.9.27-3.68.29-7,.73-10.53,1.14-6.9.86-13.81,1.71-20.67,2.63S184.89,435.08,178.09,436.08Z" style="fill:#dbdbdb"></path><path d="M184.68,438.7q10.42-1.12,20.8-2.33l20.71-2.45c3.44-.4,6.92-.88,10.3-1.19,3.54-.15,7.18-.22,10.77-.35q10.81-.35,21.59-.79-10.92,0-21.78.21c-3.63.06-7.22.14-10.87.26-3.65.32-7,.74-10.49,1.15-6.87.87-13.76,1.71-20.6,2.63S191.46,437.7,184.68,438.7Z" style="fill:#dbdbdb"></path><path d="M191.27,441.31c6.86-.73,13.71-1.48,20.53-2.29l20.44-2.42c3.4-.39,6.81-.85,10.18-1.19s7.06-.25,10.58-.39c7.11-.23,14.22-.48,21.31-.79q-10.79,0-21.5.2c-3.59.08-7.11.11-10.74.31s-6.89.74-10.31,1.16c-6.78.86-13.58,1.68-20.33,2.6S198,440.34,191.27,441.31Z" style="fill:#dbdbdb"></path><path d="M203.26,446.75q10.44-1.12,20.82-2.35l20.73-2.48,10.35-1.23c3.38-.26,7.14-.28,10.7-.42,7.22-.24,14.43-.49,21.62-.8q-10.94,0-21.82.2c-3.64.1-7.2.09-10.91.35-3.52.37-7,.77-10.42,1.2-6.88.88-13.78,1.72-20.61,2.66S210.05,445.76,203.26,446.75Z" style="fill:#dbdbdb"></path><path d="M209.85,449.45c6.94-.77,13.87-1.55,20.76-2.38l20.66-2.5,10.31-1.24c3.36-.29,7.12-.29,10.67-.43,7.2-.24,14.39-.49,21.57-.81q-10.9,0-21.77.21c-3.63.1-7.19.08-10.89.36-3.49.38-6.94.77-10.37,1.21-6.86.89-13.74,1.74-20.55,2.68S216.62,448.45,209.85,449.45Z" style="fill:#dbdbdb"></path><path d="M216.45,452.31c6.72-.78,13.44-1.56,20.12-2.4s13.34-1.69,20-2.52l10-1.26a43.07,43.07,0,0,1,5-.39l5.25-.17c7-.24,14-.48,21-.8q-10.62,0-21.17.19l-5.27.12c-.88,0-1.76,0-2.66.11s-1.75.17-2.6.27c-3.37.39-6.71.8-10,1.25-6.64.89-13.31,1.74-19.91,2.69S223,451.31,216.45,452.31Z" style="fill:#dbdbdb"></path><path d="M223,454.78c6.83-.64,13.64-1.28,20.43-2s13.55-1.42,20.34-2.11c3.38-.33,6.79-.74,10.13-1l10.41-.61c6.92-.45,13.83-.92,20.72-1.46q-10.53.34-21,.84l-10.45.54c-3.54.27-6.86.64-10.26,1-6.75.75-13.53,1.47-20.23,2.29S229.71,453.92,223,454.78Z" style="fill:#dbdbdb"></path><path d="M323,447.13c6.49-.55,12.91-1.21,19.29-1.9l4.8-.49c1.58-.19,3.13-.27,4.82-.34l9.89-.48,19.74-1c6.59-.34,13.14-.75,19.71-1.13-6.63.24-13.27.44-19.88.71l-19.83.81-9.9.44c-1.61.06-3.36.14-5,.31s-3.21.35-4.8.53Q332.26,445.66,323,447.13Z" style="fill:#dbdbdb"></path><path d="M316.64,444q9.56-.56,19-1.34c3.15-.23,6.29-.52,9.4-.7l9.56-.5,19.08-1.07c6.36-.35,12.69-.79,19-1.17-6.4.25-12.82.45-19.21.74l-19.16.85c-6.33.32-12.86.52-19.07,1.19S322.78,443.18,316.64,444Z" style="fill:#dbdbdb"></path><path d="M310.52,441.07c6.32-.36,12.61-.78,18.84-1.3l9.34-.72,9.52-.37,19.06-.77c6.35-.25,12.67-.59,19-.88-6.4.15-12.81.25-19.19.45L348,438l-9.57.32c-3.21.19-6.27.5-9.39.77C322.77,439.66,316.63,440.33,310.52,441.07Z" style="fill:#dbdbdb"></path><path d="M299.51,436.26c6.28-.54,12.38-1.32,18.54-2,1.58-.15,3-.38,4.58-.38l4.82-.12,9.64-.22q19.28-.45,38.51-1.05-19.38.12-38.71.43l-9.66.17-4.83.1a43.24,43.24,0,0,0-4.81.37C311.44,434.32,305.39,435.17,299.51,436.26Z" style="fill:#dbdbdb"></path><path d="M293.76,433.65c6.28-.55,12.39-1.33,18.54-2,1.58-.15,3-.38,4.59-.38l4.81-.12,9.64-.21q19.28-.46,38.51-1.05-19.38.11-38.71.42l-9.66.18-4.83.1a43.29,43.29,0,0,0-4.81.36C305.69,431.7,299.64,432.56,293.76,433.65Z" style="fill:#dbdbdb"></path><path d="M288,431c6.27-.54,12.38-1.32,18.53-2,1.58-.14,3-.37,4.59-.37l4.81-.12,9.64-.22q19.28-.46,38.52-1.05-19.39.11-38.72.42l-9.65.18-4.83.1a46,46,0,0,0-4.82.36C299.94,429.08,293.89,429.94,288,431Z" style="fill:#dbdbdb"></path><path d="M280.5,428.67c6.27-.54,12.38-1.32,18.53-2,1.58-.15,3-.38,4.59-.38l4.81-.12,9.64-.22q19.28-.45,38.52-1-19.39.12-38.71.42l-9.66.18-4.83.1a46,46,0,0,0-4.82.36C292.42,426.72,286.38,427.58,280.5,428.67Z" style="fill:#dbdbdb"></path><path d="M267.44,423.73c6.26-.54,12.36-1.32,18.5-2a44,44,0,0,1,4.57-.37l4.82-.09,9.65-.13q19.29-.27,38.57-.68-19.41-.08-38.75,0l-9.67.1-4.83.06a40.86,40.86,0,0,0-4.82.36C279.34,421.79,273.31,422.64,267.44,423.73Z" style="fill:#dbdbdb"></path><path d="M261.69,421.11c6.25-.54,12.34-1.31,18.47-2a41.4,41.4,0,0,1,4.56-.37l4.81,0,9.67,0q19.32-.07,38.62-.26-19.41-.3-38.78-.36h-9.67l-4.85,0a40.75,40.75,0,0,0-4.82.35C273.57,419.17,267.55,420,261.69,421.11Z" style="fill:#dbdbdb"></path><path d="M255.94,418.5c6.24-.55,12.32-1.32,18.44-2a43.62,43.62,0,0,1,4.53-.36l4.82,0,9.67.13c12.91.16,25.81.32,38.71.41q-19.42-.63-38.82-1l-9.69-.17-4.86-.05a38.31,38.31,0,0,0-4.82.35C267.8,416.56,261.79,417.41,255.94,418.5Z" style="fill:#dbdbdb"></path><path d="M229.65,458.3c7-.54,13.91-1.09,20.82-1.7l20.73-1.85c3.45-.29,6.91-.66,10.32-.93l10.47-.73q10.45-.76,20.84-1.66-10.59.46-21.11,1.07l-10.51.65c-3.54.27-7,.57-10.42.9-6.88.67-13.78,1.3-20.63,2S236.47,457.52,229.65,458.3Z" style="fill:#dbdbdb"></path><path d="M327.62,450.12q10.53-.69,21-1.47L369.55,447l10.42-.81,10.56-.61q10.55-.66,21-1.44-10.68.34-21.28.84l-10.6.53c-3.57.23-7,.49-10.52.79-6.95.59-13.91,1.15-20.83,1.79S334.5,449.42,327.62,450.12Z" style="fill:#dbdbdb"></path><path d="M428.54,448.41l3.49,2.51-99.21,7.75-112.16,8.64-93.75-39.84,3.31-3.49,94.29,40.23s46.3-3.86,56.57-5.3,28.93-5.18,49.28-2.9c0,0,23.43-2.85,34.5-4.33S428.54,448.41,428.54,448.41Z" style="fill:#ebebeb"></path></g><g id="freepik--speech-bubbles--inject-310"><path d="M387.19,97a53.9,53.9,0,0,1-86,43.29l-26.42,6.74,11-24.6A53.92,53.92,0,1,1,387.19,97Z" style="fill:#FFC727"></path><path d="M387.19,97A54.06,54.06,0,0,1,301,140.57c1.37,0-26.46,6.84-26.13,6.86l-.79.21.33-.75,10.93-24.63,0,.42a53.14,53.14,0,0,1-6.4-23.63,54.73,54.73,0,0,1,19.42-43.51C333.72,26.23,387,51.08,387.19,97Zm0,0c.12-34.55-33.49-60.85-67-52-24.08,5.73-41.63,29.3-40.37,54a54.14,54.14,0,0,0,6.28,23.22l.11.21-.09.21-11.07,24.56-.46-.54L301.22,140a53.4,53.4,0,0,0,49.35,7.9,61,61,0,0,0,8.5-3.67c1.51-1,3.29-1.89,4.74-2.93.48-.39,3.27-2.4,3.72-2.77A54.41,54.41,0,0,0,387.19,97Z" style="fill:#263238"></path><path d="M352,97a5.4,5.4,0,1,0,5.39-5.39A5.39,5.39,0,0,0,352,97Z" style="fill:#263238"></path><path d="M327.91,97a5.4,5.4,0,1,0,5.4-5.39A5.39,5.39,0,0,0,327.91,97Z" style="fill:#263238"></path><path d="M303.81,97a5.4,5.4,0,1,0,5.39-5.39A5.39,5.39,0,0,0,303.81,97Z" style="fill:#263238"></path><path d="M337.56,296.36A65.31,65.31,0,0,1,285.11,192.1l-8.17-32,29.8,13.33a65.33,65.33,0,1,1,30.82,122.94Z" style="fill:#fff"></path><path d="M337.56,296.36c-45.54.25-77.55-46-61.37-88.59a66.58,66.58,0,0,1,8.66-15.86l-.05.27-8.25-32-.2-.79.75.33L306.93,173l-.41,0c21.94-12.13,50.63-9.79,70.48,5.47,49.84,38.65,23.66,117.11-39.44,117.88Zm0,0c55.35-.42,85.28-64.7,49.71-107.19C368,165.9,333.46,159.4,307,173.83l-.2.11-.21-.09-29.78-13.39.55-.46c0,.15,8.1,32,8.14,32.17a65.74,65.74,0,0,0-8.74,15.8c-16.3,42.3,15.51,88.46,60.84,88.39Z" style="fill:#263238"></path><path d="M303.67,225.88a3.33,3.33,0,0,1-2.65-1.22,3.79,3.79,0,0,1-.7-1.32,5.11,5.11,0,0,1-.25-1.63,6.23,6.23,0,0,1,.46-2.38,6.8,6.8,0,0,1,1.22-2,6.27,6.27,0,0,1,1.78-1.39,4.48,4.48,0,0,1,2.11-.52,2.88,2.88,0,0,1,1.84.59,3.16,3.16,0,0,1,1.06,1.5l.4-1.9h2.15l-1.63,7.58c0,.06,0,.12,0,.16s0,.09,0,.13c0,.25.15.39.45.4l-.39,1.82-.49.07-.38,0c-.83,0-1.25-.33-1.25-1a4.66,4.66,0,0,1,.13-.93,5,5,0,0,1-1.77,1.51A4.55,4.55,0,0,1,303.67,225.88Zm.92-1.81a2.59,2.59,0,0,0,.83-.16,4,4,0,0,0,.85-.42,4.61,4.61,0,0,0,.76-.64,3.46,3.46,0,0,0,.56-.79l.54-2.65a2.69,2.69,0,0,0-.26-.86,2.8,2.8,0,0,0-.51-.7,2.33,2.33,0,0,0-.68-.46,1.83,1.83,0,0,0-.77-.16,2.79,2.79,0,0,0-1.38.36,4.16,4.16,0,0,0-1.14.95,4.87,4.87,0,0,0-.79,1.32,4.2,4.2,0,0,0-.29,1.5,3.64,3.64,0,0,0,.16,1.07,2.39,2.39,0,0,0,.45.85,2.16,2.16,0,0,0,.73.57A2.1,2.1,0,0,0,304.59,224.07Z" style="fill:#263238"></path><path d="M311.53,225.69l.52-2.48h1.78l-.54,2.48Z" style="fill:#263238"></path><path d="M305,249.07a3.2,3.2,0,0,1-1.91-.55A3.06,3.06,0,0,1,302,247l-.39,1.83h-1.87l3-14.1h2.13l-1.24,5.91a6,6,0,0,1,1.71-1.52,4,4,0,0,1,2.08-.57,3.06,3.06,0,0,1,1.44.33,3.18,3.18,0,0,1,1,.89,4.25,4.25,0,0,1,.63,1.3,5.85,5.85,0,0,1,.21,1.58,6.33,6.33,0,0,1-.48,2.45,6.83,6.83,0,0,1-1.29,2,6.13,6.13,0,0,1-1.83,1.38A4.79,4.79,0,0,1,305,249.07Zm-.11-1.82a2.82,2.82,0,0,0,1.34-.35,4.24,4.24,0,0,0,1.16-.92,4.42,4.42,0,0,0,.81-1.32,4.16,4.16,0,0,0,.3-1.56,3.77,3.77,0,0,0-.14-1,2.66,2.66,0,0,0-.4-.85,2.12,2.12,0,0,0-.67-.59,1.82,1.82,0,0,0-.92-.22,2.6,2.6,0,0,0-.89.17,4.27,4.27,0,0,0-.85.48,5.45,5.45,0,0,0-.76.69,8.58,8.58,0,0,0-.65.84l-.58,2.67a2,2,0,0,0,.69,1.42A2.24,2.24,0,0,0,304.85,247.25Z" style="fill:#263238"></path><path d="M311.34,248.87l.52-2.47h1.78l-.54,2.47Z" style="fill:#263238"></path><path d="M304.09,272.25a4.09,4.09,0,0,1-1.72-.34,3.55,3.55,0,0,1-1.26-.92,3.92,3.92,0,0,1-.78-1.35,5.17,5.17,0,0,1-.26-1.64,5.9,5.9,0,0,1,.48-2.34,6.27,6.27,0,0,1,1.31-2,6.72,6.72,0,0,1,2-1.38,5.77,5.77,0,0,1,2.46-.52,4.05,4.05,0,0,1,2.44.68,3.3,3.3,0,0,1,1.24,1.83l-2.21.66a1.93,1.93,0,0,0-.7-1,2,2,0,0,0-1.19-.36,3,3,0,0,0-1.34.32,3.67,3.67,0,0,0-1.15.89,4.35,4.35,0,0,0-.81,1.33,4.52,4.52,0,0,0-.29,1.62,3.69,3.69,0,0,0,.15,1.07,2.54,2.54,0,0,0,.44.85,2.16,2.16,0,0,0,.69.56,1.84,1.84,0,0,0,.88.2,2.62,2.62,0,0,0,.73-.1,3.15,3.15,0,0,0,.71-.3,3.43,3.43,0,0,0,.61-.45,2,2,0,0,0,.44-.54l1.95.62a4.62,4.62,0,0,1-.86,1,5.88,5.88,0,0,1-1.13.83,5.79,5.79,0,0,1-1.33.54A5.59,5.59,0,0,1,304.09,272.25Z" style="fill:#263238"></path><path d="M310,272.06l.53-2.48h1.77l-.54,2.48Z" style="fill:#263238"></path><rect x="317.59" y="218.76" width="55.13" height="3.77" style="fill:#ebebeb"></rect><rect x="317.59" y="241.94" width="55.13" height="3.77" style="fill:#ebebeb"></rect><rect x="317.59" y="265.13" width="55.13" height="3.77" style="fill:#ebebeb"></rect><rect x="306.19" y="200.96" width="62.73" height="3.77" style="fill:#ebebeb"></rect><rect x="299.71" y="193.97" width="75.7" height="3.77" style="fill:#ebebeb"></rect><path d="M309.84,232.91a16.22,16.22,0,0,0-13.67,8.19c-1.24,2.27-1.92,5.05-.81,7.42,2.45,4.95,9.45,4.67,13.89,2.54,9.16-4.31,10.78-15.23-1.94-14.11a15.52,15.52,0,0,1,4.31-.35c5.72.2,7.7,5.37,5,10.06a15,15,0,0,1-6.55,6.1c-5.25,2.71-13.62,2.7-16.43-3.47-1.29-3-.44-6.37,1.2-8.95a15.88,15.88,0,0,1,15-7.43Z" style="fill:#FFC727"></path></g><g id="freepik--light-bulb--inject-310"><g style="opacity:0.5"><path d="M156.75,79.17c6.36,28.35-14.1,43.82-14.1,43.82-.39,4.73.71,16.11.71,16.11l-30.76,9.53s-5.52-10-8.52-13.69c0,0-25.63-1.2-36.41-28.18C60.19,88,65.07,55.37,97.29,45.38l.33-.1C129.84,35.3,152.33,59.47,156.75,79.17Z" style="fill:#FFC727"></path></g><g style="opacity:0.7000000000000001"><path d="M153,80.49c5.82,25.92-12.9,40.08-12.9,40.08-.35,4.33,2,18.94,2,18.94l-28.14,8.72s-6.35-13.37-9.09-16.73c0,0-23.44-1.1-33.3-25.77-6.85-17.15-2.38-47,27.09-56.15l.3-.09C128.38,40.36,149,62.47,153,80.49Z" style="fill:#FFC727"></path></g><rect x="107.79" y="100.19" width="3" height="51.58" transform="translate(-46.13 65.48) rotate(-27.79)" style="fill:#fff"></rect><rect x="131.79" y="92.75" width="3" height="51.58" transform="translate(-12.84 16.25) rotate(-6.65)" style="fill:#fff"></rect><path d="M117.29,114.46c-2.11,0-4.54-1.19-7-3.48l-.32-.3a3.8,3.8,0,0,1-2.18,2.17c-4.63,1.44-9.41-7.46-9.61-7.84l.88-.47c1.27,2.38,5.24,8.34,8.44,7.35a3.16,3.16,0,0,0,1.72-2c-3.16-3.35-5.86-8.15-5.21-11a2.51,2.51,0,0,1,1.79-1.95c2.06-.64,3.76.63,4.64,3.49a16.76,16.76,0,0,1-.06,9.26l.59.57c1.62,1.5,4.77,3.89,7.55,3,1.86-.57,3.27-2.63,4-5.78l.15-.75a13.3,13.3,0,0,1-5.3-7.3c-1.06-3.44-.42-6,1.68-6.63a2.35,2.35,0,0,1,2.38.61c2.09,1.93,3.09,7.74,2.34,12.81a4.52,4.52,0,0,0,3.32.27c2.73-.85,3.12-8.21,3-11l1,0c0,1.1.2,10.74-3.74,12a5.44,5.44,0,0,1-3.79-.25c0,.17-.07.34-.11.5-.81,3.57-2.42,5.82-4.66,6.52A5.13,5.13,0,0,1,117.29,114.46Zm-10.5-16.69a2.26,2.26,0,0,0-.7.11A1.53,1.53,0,0,0,105,99.1c-.49,2.16,1.57,6.39,4.59,9.74a16.11,16.11,0,0,0-.09-8.13C109,99.31,108.24,97.77,106.79,97.77Zm12.94-4.06a1.12,1.12,0,0,0-.4.07c-1.81.56-1.68,3.24-1,5.38a13,13,0,0,0,4.5,6.54c.57-4.58-.32-9.91-2.08-11.54A1.45,1.45,0,0,0,119.73,93.71Z" style="fill:#fff"></path><rect x="111.11" y="143.41" width="40.34" height="22.2" transform="translate(-39.84 45.77) rotate(-17.21)" style="fill:#455a64"></rect><path d="M149.46,160.5c-1,4.72-4.25,9.66-12.54,12.23s-13.75.32-17.26-3Z" style="fill:#455a64"></path><path d="M149.46,160.5a14.91,14.91,0,0,1-1.48,4l-27.17,6.19c-.4-.32-.79-.65-1.15-1Z" style="fill:#37474f"></path><polygon points="149.64 141.63 110.02 158.04 109.44 156.19 149.07 139.78 149.64 141.63" style="fill:#37474f"></polygon><polygon points="151.38 147.23 111.75 163.64 111.18 161.79 150.8 145.38 151.38 147.23" style="fill:#37474f"></polygon><polygon points="153.11 152.83 113.49 169.24 112.91 167.39 152.54 150.98 153.11 152.83" style="fill:#37474f"></polygon><g style="opacity:0.5"><path d="M75.38,97.29c1.49-.2,1.06-8.06,6.28-18.92C84,73.54,95.75,64.75,93.45,60.72S80.75,64.79,77,73.5C70.83,87.51,74,97.48,75.38,97.29Z" style="fill:#fff"></path><path d="M145.37,77.28c2.6-.81,1.36-4.85-1.25-4S142.77,78.08,145.37,77.28Z" style="fill:#fff"></path><path d="M142.07,111.59c1.75.64,6.68-7.86,7.44-16.41.62-7.1-1.4-15.21-3.28-15.14s.38,11.36-.46,16C144.72,102,140.19,110.9,142.07,111.59Z" style="fill:#fff"></path></g></g></svg>
