<svg xmlns="http://www.w3.org/2000/svg" viewBox="0 0 500 500"><g id="freepik--character-2--inject-1343"><path d="M268.93,190.58c-3.59-2.32-5-7.76-5.39-13.47a68.45,68.45,0,0,1,.53-13c.11-1.1.27-2.16.46-3.16a28.56,28.56,0,0,1,.64-3l-32.61-13.46c3.58,5.4,6.31,22.69,5.55,28.25-.83,6.24-1.08,15-4.32,17.26Z" style="fill:#FFBD40"></path><g style="opacity:0.7000000000000001"><path d="M268.93,190.58c-3.59-2.32-5-7.76-5.39-13.47a68.45,68.45,0,0,1,.53-13c.11-1.1.27-2.16.46-3.16a28.56,28.56,0,0,1,.64-3l-32.61-13.46c3.58,5.4,6.31,22.69,5.55,28.25-.83,6.24-1.08,15-4.32,17.26Z" style="fill:#fff"></path></g><path d="M233.79,190c-7,5-4,12.86,1.69,19.28a72,72,0,0,0,7.05,6.91c10.9,9.33,28,5.37,33.09-8.05,2.23-5.95,1.46-12.33-6.69-17.55Z" style="fill:#ffb573"></path><path d="M263.54,177.11a68.45,68.45,0,0,1,.53-13c.11-1.1.27-2.16.46-3.16l-25.21-4.84C244.61,161.35,252,172.07,263.54,177.11Z" style="isolation:isolate;opacity:0.2"></path><path d="M296.8,118.64c-.8,5.42-8.23,14.23-7.87,13.7a3,3,0,0,0,.3-1.87,20.44,20.44,0,0,0-1.77-7.06c-.63,3-1.59,9.29-4.58,9.34-1.19-2.24-2.65-4.28-2.44-6.82-.69,2.6-1.33,5.22-2,7.82-5.8-3.57-9.47-11.81-8.26-18.69a13.13,13.13,0,0,1,1.71-4.72,19.25,19.25,0,0,1,3.87-4.19c3.79-3.32,5.33-4.86,10.31-4.86C296.94,101.29,297.6,113.22,296.8,118.64Z" style="fill:#FFBD40"></path><path d="M296.8,118.64c-.8,5.42-8.23,14.23-7.87,13.7a3,3,0,0,0,.3-1.87,20.44,20.44,0,0,0-1.77-7.06c-.63,3-1.59,9.29-4.58,9.34-1.19-2.24-2.65-4.28-2.44-6.82-.69,2.6-1.33,5.22-2,7.82-5.8-3.57-9.47-11.81-8.26-18.69a13.13,13.13,0,0,1,1.71-4.72,19.25,19.25,0,0,1,3.87-4.19c3.79-3.32,5.33-4.86,10.31-4.86C296.94,101.29,297.6,113.22,296.8,118.64Z" style="isolation:isolate;opacity:0.30000000000000004"></path><path d="M291.17,145.18c-4.05,22.07-30.47,33.71-47.91,17.9-10.07-9.11-11.67-20-13.51-36.92-.29-2.57-.58-5.27-.9-8.14a30.44,30.44,0,0,1,1.34-13.27,27.4,27.4,0,0,1,2.28-5.11A30,30,0,0,1,268.3,85.8C290.16,93.16,294.84,125.32,291.17,145.18Z" style="fill:#FFBD40"></path><path d="M291.17,145.18c-4.05,22.07-30.47,33.71-47.91,17.9-10.07-9.11-11.67-20-13.51-36.92-.29-2.57-.58-5.27-.9-8.14a30.44,30.44,0,0,1,1.34-13.27,27.4,27.4,0,0,1,2.28-5.11A30,30,0,0,1,268.3,85.8C290.16,93.16,294.84,125.32,291.17,145.18Z" style="fill:#fff;opacity:0.7000000000000001"></path><path d="M263.89,118.67c1.16-.08,2.17,1.32,2.26,3.09s-.61,3.27-1.91,3.34-2.32-1.31-2.42-3.1S262.74,118.74,263.89,118.67Z" style="fill:#FFBD40"></path><path d="M263.89,118.67c1.16-.08,2.17,1.32,2.26,3.09s-.61,3.27-1.91,3.34-2.32-1.31-2.42-3.1S262.74,118.74,263.89,118.67Z" style="isolation:isolate;opacity:0.30000000000000004"></path><path d="M283.69,118.49c1.16-.08,2.17,1.3,2.27,3.07s-.74,3.26-1.92,3.34-2.19-1.3-2.29-3.07S282.54,118.56,283.69,118.49Z" style="fill:#FFBD40"></path><path d="M283.69,118.49c1.16-.08,2.17,1.3,2.27,3.07s-.74,3.26-1.92,3.34-2.19-1.3-2.29-3.07S282.54,118.56,283.69,118.49Z" style="isolation:isolate;opacity:0.30000000000000004"></path><path d="M275.36,139.28c3,.31,8.47-1.51,10.64-3.64-4.13-4.09-8.74-8.69-11.57-13.76Z" style="fill:#FFBD40"></path><path d="M275.36,139.28c3,.31,8.47-1.51,10.64-3.64-4.13-4.09-8.74-8.69-11.57-13.76Z" style="fill:#fff;opacity:0.5"></path><path d="M260.58,111.71a8.42,8.42,0,0,1,7.3,2.11h0a1,1,0,0,0,.21.25,1,1,0,1,0,1.37-1.59,10.38,10.38,0,0,0-9.09-2.8,1,1,0,0,0-.88,1.18.91.91,0,0,0,.22.49A1.07,1.07,0,0,0,260.58,111.71Z" style="fill:#FFBD40"></path><path d="M260.58,111.71a8.42,8.42,0,0,1,7.3,2.11h0a1,1,0,0,0,.21.25,1,1,0,1,0,1.37-1.59,10.38,10.38,0,0,0-9.09-2.8,1,1,0,0,0-.88,1.18.91.91,0,0,0,.22.49A1.07,1.07,0,0,0,260.58,111.71Z" style="isolation:isolate;opacity:0.30000000000000004"></path><path d="M290.92,109.59v0a1.06,1.06,0,0,0-1.06-1,10.21,10.21,0,0,0-8.51,4.19v0a1,1,0,0,0,.31,1.41l.07,0a1,1,0,0,0,1.37-.34,8.25,8.25,0,0,1,6.78-3.24,1,1,0,0,0,.88-.45A1.34,1.34,0,0,0,290.92,109.59Z" style="fill:#FFBD40"></path><path d="M290.92,109.59v0a1.06,1.06,0,0,0-1.06-1,10.21,10.21,0,0,0-8.51,4.19v0a1,1,0,0,0,.31,1.41l.07,0a1,1,0,0,0,1.37-.34,8.25,8.25,0,0,1,6.78-3.24,1,1,0,0,0,.88-.45A1.34,1.34,0,0,0,290.92,109.59Z" style="isolation:isolate;opacity:0.30000000000000004"></path><path d="M241.27,158.35a17.9,17.9,0,0,1-7.37-3.24c0,2.93-2,8-2,8-9.32-3.07-17-21.71-18-27.89-5.18,9.63-4.73,4.09-5.13,0-.58-5.89-.73-12,1.28-17.55s6.59-10.52,12.43-11.48a6.11,6.11,0,0,1,5.61,2.65A16.22,16.22,0,0,1,230,114.6C232.73,129.21,232.61,146.27,241.27,158.35Z" style="fill:#FFBD40"></path><path d="M241.27,158.35a17.9,17.9,0,0,1-7.37-3.24c0,2.93-2,8-2,8-9.32-3.07-17-21.71-18-27.89-5.18,9.63-4.73,4.09-5.13,0-.58-5.89-.73-12,1.28-17.55s6.59-10.52,12.43-11.48a6.11,6.11,0,0,1,5.61,2.65A16.22,16.22,0,0,1,230,114.6C232.73,129.21,232.61,146.27,241.27,158.35Z" style="isolation:isolate;opacity:0.30000000000000004"></path><path d="M228.06,124.85c7.13.16,11.48,9.15,12.24,15.3.89,6.85-3.71,12.48-10.32,9.45a20.41,20.41,0,0,1-10.65-11.7C217.12,131.54,220.92,124.7,228.06,124.85Z" style="fill:#FFBD40"></path><path d="M228.06,124.85c7.13.16,11.48,9.15,12.24,15.3.89,6.85-3.71,12.48-10.32,9.45a20.41,20.41,0,0,1-10.65-11.7C217.12,131.54,220.92,124.7,228.06,124.85Z" style="fill:#fff;opacity:0.7000000000000001"></path><path d="M242.34,103.88A18.42,18.42,0,0,1,247.08,119c-.83,5.42-8.5,14.22-8.14,13.69a3,3,0,0,0,.32-1.87,20.1,20.1,0,0,0-1.84-7.06c-.65,3-1.64,9.29-4.73,9.33-1.23-2.23-2.74-4.27-2.53-6.82-.71,2.61-1.37,5.23-2.08,7.83-6-3.58-9.8-11.82-8.56-18.7a12.87,12.87,0,0,1,1.77-4.72,19.8,19.8,0,0,1,4-4.19c3.92-3.32,9.11-6.63,13.84-4.64C239.81,102.17,242.52,103.16,242.34,103.88Z" style="fill:#FFBD40"></path><path d="M242.34,103.88A18.42,18.42,0,0,1,247.08,119c-.83,5.42-8.5,14.22-8.14,13.69a3,3,0,0,0,.32-1.87,20.1,20.1,0,0,0-1.84-7.06c-.65,3-1.64,9.29-4.73,9.33-1.23-2.23-2.74-4.27-2.53-6.82-.71,2.61-1.37,5.23-2.08,7.83-6-3.58-9.8-11.82-8.56-18.7a12.87,12.87,0,0,1,1.77-4.72,19.8,19.8,0,0,1,4-4.19c3.92-3.32,9.11-6.63,13.84-4.64C239.81,102.17,242.52,103.16,242.34,103.88Z" style="isolation:isolate;opacity:0.30000000000000004"></path><path d="M281,145.34s-6.11-2.48-24.12-4.63c1,6.54,5,9.3,14.21,10.3S281,145.34,281,145.34Z" style="fill:#263238"></path><path d="M280.18,145.11a4.43,4.43,0,0,1-3.39,2.78,81.38,81.38,0,0,1-15.65-3.48,4.67,4.67,0,0,1-3.52-3.54A125.51,125.51,0,0,1,280.18,145.11Z" style="fill:#fff"></path><path d="M276.43,147.35A47.41,47.41,0,0,0,262.21,144a7.6,7.6,0,0,0-3.77,1.5c2,3.24,6,4.85,12.57,5.59a10.48,10.48,0,0,0,7.18-1.31A11.2,11.2,0,0,0,276.43,147.35Z" style="fill:#fff"></path><path d="M292.75,188.49a40.57,40.57,0,0,1-7.85,20c-.32.43-.65.86-1,1.28-9.72,12.31-27.19,16.13-41.72,9.66A85.64,85.64,0,0,1,229,212.29c-8.24-5.54-15.35-13.24-18.7-22.28l25.55-3.29,17.47-2.25,11.94,1.22Z" style="fill:#ffb573"></path><path d="M166.42,204.87c-1,75-56.35,140-62.06,214.83H379.07a566.8,566.8,0,0,1-50.6-185.5L324.22,190H183.63S166.52,197.53,166.42,204.87Z" style="fill:#FFBD40"></path><path d="M166.42,204.87c-1,75-56.35,140-62.06,214.83H379.07a566.8,566.8,0,0,1-50.6-185.5L324.22,190H183.63S166.52,197.53,166.42,204.87Z" style="fill:#fff;opacity:0.6000000000000001"></path><path d="M138.54,419.6s-1.6-77.23,24-157.13S156,286.43,161,379c1.42,26.69,8.41,41,8.41,41Z" style="fill:#fff;opacity:0.2"></path><path d="M353.86,420s-33.56-77.83-39.59-180.56c0,0-8.22,90.91,20.14,180.26Z" style="fill:#fff;opacity:0.2"></path><path d="M344.89,177.18a3.07,3.07,0,0,1,.42-.17l-.16.07Z" style="fill:#FFBD40"></path><path d="M347.1,176.36l-.71.26-.58.21-.09,0-.41.15C345.88,176.78,346.48,176.57,347.1,176.36Z" style="fill:#FFBD40"></path><path d="M418.82,180.34c0,27.44-49.24,44.71-71.21,51-20.84,7-33.34,8.05-33.34,8.05-.77-7.25-16.49-49.8-16.49-49.8s9.4-4,16.14-3.4l.17,0a38.74,38.74,0,0,0,22.61-5.18,57.63,57.63,0,0,1,7.74-3.73l.45-.17.26-.1.57-.22.09,0,.58-.21.71-.26.83-.27.25-.08.26-.08.19-.05.07,0a54.53,54.53,0,0,1,5.91-1.36,28.84,28.84,0,0,1,17.34,2,6.91,6.91,0,0,0,6.58-.27c1-.64,1.43-1.33.47-1.87l-46.74-53.46,14.25-7.83S418.82,151.26,418.82,180.34Z" style="fill:#FFBD40"></path><path d="M418.82,180.34c0,27.44-49.24,44.71-71.21,51-20.84,7-33.34,8.05-33.34,8.05-.77-7.25-16.49-49.8-16.49-49.8s9.4-4,16.14-3.4l.17,0a38.74,38.74,0,0,0,22.61-5.18,57.63,57.63,0,0,1,7.74-3.73l.45-.17.26-.1.57-.22.09,0,.58-.21.71-.26.83-.27.25-.08.26-.08.19-.05.07,0a54.53,54.53,0,0,1,5.91-1.36,28.84,28.84,0,0,1,17.34,2,6.91,6.91,0,0,0,6.58-.27c1-.64,1.43-1.33.47-1.87l-46.74-53.46,14.25-7.83S418.82,151.26,418.82,180.34Z" style="fill:#FFBD40"></path><g style="opacity:0.30000000000000004"><path d="M418.82,180.34c0,27.44-49.24,44.71-71.21,51-20.84,7-33.34,8.05-33.34,8.05-.77-7.25-16.49-49.8-16.49-49.8s9.4-4,16.14-3.4l.17,0a38.74,38.74,0,0,0,22.61-5.18,57.63,57.63,0,0,1,7.74-3.73l.45-.17.26-.1.57-.22.09,0,.58-.21.71-.26.83-.27.25-.08.26-.08.19-.05.07,0a54.53,54.53,0,0,1,5.91-1.36,28.84,28.84,0,0,1,17.34,2,6.91,6.91,0,0,0,6.58-.27c1-.64,1.43-1.33.47-1.87l-46.74-53.46,14.25-7.83S418.82,151.26,418.82,180.34Z" style="fill:#fff"></path></g><path d="M336.11,122.27l-19.92-7.89-12-16,17.24-3.83,16.3,8.45,9.78,10.64a4,4,0,0,1-1.72,6.51l-7,2.23A4,4,0,0,1,336.11,122.27Z" style="fill:#FFBD40"></path><path d="M336.11,122.27l-19.92-7.89-12-16,17.24-3.83,16.3,8.45,9.78,10.64a4,4,0,0,1-1.72,6.51l-7,2.23A4,4,0,0,1,336.11,122.27Z" style="fill:#fff;opacity:0.7000000000000001"></path><path d="M323.07,217.57l2,20.23s29.49-6.84,46.16-14.47l-13.39.73A65.1,65.1,0,0,1,325.63,218Z" style="isolation:isolate;opacity:0.2"></path><path d="M326.6,237.33c-.29,64.39-12.12,70.47-11.56,125.89,0,0-111.49.45-115.27.55-9-74.58-18.17-78-15.75-135.27-1.17-18.81,9.5-35.35,20.23-37.5l49.09-6.53,47.22,5C312.56,191.19,323.41,200.65,326.6,237.33Z" style="fill:#FFBD40"></path><path d="M326.6,237.33c-.29,64.39-12.12,70.47-11.56,125.89,0,0-111.49.45-115.27.55-9-74.58-18.17-78-15.75-135.27-1.17-18.81,9.5-35.35,20.23-37.5l49.09-6.53,47.22,5C312.56,191.19,323.41,200.65,326.6,237.33Z" style="fill:#fff;opacity:0.30000000000000004"></path><path d="M246.08,111.58c-3-6.6-7-9.79-4.67-9.43,6.26,1,10.09-4.51,14.69-1.41,2.24,2.56-.34,7.32-.45,7.06,2.3,1.09,5.17.23,7.06-1.45s2.55-4.62,3.48-7a13.68,13.68,0,0,1-.18,7.79c1.65,1.31,5.05-1.15,6.6-2.58A15,15,0,0,0,276,98.8c.59,2.3,1.05,4.64-.6,7.41,2.34.13,5.41-.59,6.95-2.34a8.35,8.35,0,0,0,2-6.75c.53,1.18.61,6-.44,6.81,4-1.31,7.71-6.31,7.5-10.48a13.07,13.07,0,0,0-6.53-10.15c-1.79-1.07-3.78-1.77-5.66-2.69-2.89-1.42-21.25-15.12-48.21.5-16.73,9.7-13.46,29-11.47,31.1,2.47,2.59,6.36,3.46,9.95,3.1S246.86,113.33,246.08,111.58Z" style="fill:#FFBD40"></path><path d="M246.08,111.58c-3-6.6-7-9.79-4.67-9.43,6.26,1,10.09-4.51,14.69-1.41,2.24,2.56-.34,7.32-.45,7.06,2.3,1.09,5.17.23,7.06-1.45s2.55-4.62,3.48-7a13.68,13.68,0,0,1-.18,7.79c1.65,1.31,5.05-1.15,6.6-2.58A15,15,0,0,0,276,98.8c.59,2.3,1.05,4.64-.6,7.41,2.34.13,5.41-.59,6.95-2.34a8.35,8.35,0,0,0,2-6.75c.53,1.18.61,6-.44,6.81,4-1.31,7.71-6.31,7.5-10.48a13.07,13.07,0,0,0-6.53-10.15c-1.79-1.07-3.78-1.77-5.66-2.69-2.89-1.42-21.25-15.12-48.21.5-16.73,9.7-13.46,29-11.47,31.1,2.47,2.59,6.36,3.46,9.95,3.1S246.86,113.33,246.08,111.58Z" style="isolation:isolate;opacity:0.30000000000000004"></path><path d="M281,145.34s-6.11-2.48-24.12-4.63c1,6.54,5,9.3,14.21,10.3S281,145.34,281,145.34Z" style="fill:#FFBD40"></path><path d="M281,145.34s-6.11-2.48-24.12-4.63c1,6.54,5,9.3,14.21,10.3S281,145.34,281,145.34Z" style="isolation:isolate;opacity:0.30000000000000004"></path><path d="M280.18,145.11a4.43,4.43,0,0,1-3.39,2.78,81.38,81.38,0,0,1-15.65-3.48,4.67,4.67,0,0,1-3.52-3.54A125.51,125.51,0,0,1,280.18,145.11Z" style="fill:#fff"></path><path d="M276.43,147.35A47.41,47.41,0,0,0,262.21,144a7.6,7.6,0,0,0-3.77,1.5c2,3.24,6,4.85,12.57,5.59a10.48,10.48,0,0,0,7.18-1.31A11.2,11.2,0,0,0,276.43,147.35Z" style="fill:#fff"></path><path d="M194,335.37s23.58-12.5,23.45-11.13.49,27.82.49,27.82l-25.71-.59Z" style="fill:#FFBD40"></path><path d="M217.43,324.24s21.71.71,21.59,3.12S236.56,350,236.56,350l-18.64,2.07Z" style="fill:#FFBD40"></path><g style="opacity:0.7000000000000001"><path d="M239,327.36c-.12,2.42-2.45,22.63-2.45,22.63l-18.64,2.07-25.71-.59,1.77-16.1s23.58-12.5,23.45-11.13C217.43,324.24,239.14,325,239,327.36Z" style="fill:#fff"></path></g><path d="M292.75,188.49a40.57,40.57,0,0,1-7.85,20c-.32.43-.65.86-1,1.28-9.72,12.31-27.19,16.13-41.72,9.66A85.64,85.64,0,0,1,229,212.29c-8.24-5.54-15.35-13.24-18.7-22.28l25.55-3.29,17.47-2.25,11.94,1.22Z" style="fill:#FFBD40"></path><path d="M292.75,188.49a40.57,40.57,0,0,1-7.85,20c-.32.43-.65.86-1,1.28-9.72,12.31-27.19,16.13-41.72,9.66A85.64,85.64,0,0,1,229,212.29c-8.24-5.54-15.35-13.24-18.7-22.28l25.55-3.29,17.47-2.25,11.94,1.22Z" style="fill:#fff;opacity:0.7000000000000001"></path><path d="M184.18,253.43a196,196,0,0,0,3,33.54l8.35-52.12Z" style="isolation:isolate;opacity:0.2"></path><path d="M138.92,291.14l55.85,39.46-2.56,23.21s-83.82-19.27-96.51-45.42c-5.93-12.2.75-27.12,11.07-40.92a.09.09,0,0,0,0-.05c12.27-20.07,23.42-32,31.83-39.05a103.47,103.47,0,0,0,21.24-23.55c14.48-22.73,47-13.52,47-13.52-7.41,17.34-7.49,50.32-7.49,50.32s-7.27,5.48-15.21,11.81c-.08,5.35-3.33,11.9-9.61,19.3C166.28,282.49,141.74,288.05,138.92,291.14Z" style="fill:#FFBD40"></path><path d="M138.92,291.14l55.85,39.46-2.56,23.21s-83.82-19.27-96.51-45.42c-5.93-12.2.75-27.12,11.07-40.92a.09.09,0,0,0,0-.05c12.27-20.07,23.42-32,31.83-39.05a103.47,103.47,0,0,0,21.24-23.55c14.48-22.73,47-13.52,47-13.52-7.41,17.34-7.49,50.32-7.49,50.32s-7.27,5.48-15.21,11.81c-.08,5.35-3.33,11.9-9.61,19.3C166.28,282.49,141.74,288.05,138.92,291.14Z" style="fill:#fff;opacity:0.30000000000000004"></path><path d="M181.11,184.58a199.3,199.3,0,0,0,59.3,34.06c0-6.77-2.16-20.45-6-28.93-1.09-2.38-2.47-4.77-4.7-6.14s-5.5-1.36-7.16.67c-6.34-4.48-16.77-4.69-22.92,0-4.76-1.65-11.52-4.27-16.48-3.38s-11.08,7.5-10.34,12.49a38.76,38.76,0,0,1,14.6-3.74C186.05,188,187.38,189.66,181.11,184.58Z" style="fill:#FFBD40"></path><path d="M181.11,184.58a199.3,199.3,0,0,0,59.3,34.06c0-6.77-2.16-20.45-6-28.93-1.09-2.38-2.47-4.77-4.7-6.14s-5.5-1.36-7.16.67c-6.34-4.48-16.77-4.69-22.92,0-4.76-1.65-11.52-4.27-16.48-3.38s-11.08,7.5-10.34,12.49a38.76,38.76,0,0,1,14.6-3.74C186.05,188,187.38,189.66,181.11,184.58Z" style="fill:#fff;opacity:0.6000000000000001"></path><path d="M309.43,186.29a22.13,22.13,0,0,0-18.25,0c-3.92-2.87-9.95-3.48-14-.73a7.16,7.16,0,0,0-5.17-2.56c-2-.07-3.28,1.31-4.65,2.74,2.88,1.45,4.35,4.68,5.37,7.74A64.66,64.66,0,0,1,276,217.57C289.8,210.83,301.51,199.52,309.43,186.29Z" style="fill:#FFBD40"></path><path d="M309.43,186.29a22.13,22.13,0,0,0-18.25,0c-3.92-2.87-9.95-3.48-14-.73a7.16,7.16,0,0,0-5.17-2.56c-2-.07-3.28,1.31-4.65,2.74,2.88,1.45,4.35,4.68,5.37,7.74A64.66,64.66,0,0,1,276,217.57C289.8,210.83,301.51,199.52,309.43,186.29Z" style="fill:#fff;opacity:0.6000000000000001"></path><path d="M306.73,264.22c0,15.19-21.62,42.34-48.29,42.34s-48.29-27.15-48.29-42.34,21.62-27.51,48.29-27.51S306.73,249,306.73,264.22Z" style="fill:#fff;opacity:0.5"></path><path d="M300.24,265.53c0,12.51-17.81,34.88-39.78,34.88S220.69,278,220.69,265.53s17.8-22.67,39.77-22.67S300.24,253,300.24,265.53Z" style="fill:#FFBD40"></path><path d="M300.24,265.53c0,12.51-17.81,34.88-39.78,34.88S220.69,278,220.69,265.53s17.8-22.67,39.77-22.67S300.24,253,300.24,265.53Z" style="fill:#fff;opacity:0.5"></path><rect x="199.77" y="363.77" width="115.29" height="18.81" style="fill:#fff"></rect><polygon points="199.77 382.58 188.74 419.7 318.79 419.7 315.07 382.58 199.77 382.58" style="fill:#FFBD40"></polygon><polygon points="199.77 382.58 188.74 419.7 318.79 419.7 315.07 382.58 199.77 382.58" style="fill:#fff;opacity:0.2"></polygon><rect x="250.75" y="362.57" width="34.47" height="20.61" style="fill:#263238"></rect><rect x="250.75" y="362.57" width="34.47" height="20.61" style="fill:#fff;opacity:0.7000000000000001"></rect><polygon points="265.18 362.57 255.03 383.18 262.55 383.18 273.02 362.57 265.18 362.57" style="fill:#fff;opacity:0.7000000000000001"></polygon><polygon points="276.24 362.57 266.09 383.18 271.46 383.18 281.93 362.57 276.24 362.57" style="fill:#fff;opacity:0.7000000000000001"></polygon><path d="M296.8,118.59c-.42,2.83-2.63,6.57-4.61,9.43a75,75,0,0,1-1,17.11,30.68,30.68,0,0,1-27.66,25.13,61.82,61.82,0,0,0,0,6.8,29.3,29.3,0,0,0,1.72,8.58h0l27.47,2.8a40.57,40.57,0,0,1-7.85,20c-.32.43-.65.86-1,1.28-9.72,12.31-27.19,16.13-41.72,9.66A85.64,85.64,0,0,1,229,212.24c-8.24-5.54-15.35-13.24-18.7-22.28l25.55-3.29h0c1.32-3.74,1.62-9.5,2.22-14,.42-3.07-.22-9.71-1.48-15.94a17.7,17.7,0,0,1-2.73-1.68c0,2.93-2,8-2,8-9.32-3.07-17-21.71-18-27.89-5.19,9.63-4.73,4.09-5.13,0-.58-5.89-.73-12,1.28-17.55a18.77,18.77,0,0,1,8-9.89c-1-6.78.38-19.39,12.88-26.64,27-15.62,45.32-1.92,48.21-.5,1.88.92,3.86,1.62,5.66,2.69a13.07,13.07,0,0,1,6.53,10.15c.13,2.72-1.39,5.78-3.57,7.95C297,102.56,297.56,113.48,296.8,118.59Z" style="fill:#fff;opacity:0.2"></path><path d="M277.61,99.93l-.34-.57a6.72,6.72,0,0,0,0-2.24A8.9,8.9,0,0,1,277.61,99.93Z" style="fill:#fff;opacity:0.2"></path></g><g id="freepik--character-1--inject-1343"><path d="M202.14,389.82a66.9,66.9,0,0,1-8.59,2.18h0c-.45.08-.89.16-1.32.22-1.41.21-2.73.34-4,.4-19.35,1-19.85-15.16-20.33-23.39a242.52,242.52,0,0,1,.82-33c1.34-15.27,3.88-31.13,7.57-43,5.34-17.12,14-19,21.35-19.13h0c1.42,0,2.81,0,4.11,0,0,0-.94,4.85-1.39,9.53l-2.92,20.74-4.06,28.78v0l-.63,4.49,0,.25-2.2,15.58-.51,3.59c-.23,2.39-.4,5.76,2.21,7.68a5.34,5.34,0,0,0,1.2.7c1.7.76,4.21,1.07,7.86.64l.37,10.22.07,1.84.12,3.18.2,5.78Z" style="fill:#ffb573"></path><path d="M158.15,330.4c5.54,6.33,10,5.56,17.66,6.76s14.26.78,22,.07c1.57-21.53,4.22-43,4-64.51-6.28.47-13,.21-18.15,3.33-6.86,4.17-7.32,14.88-11.94,22.43-5.46,8.92-12.46,16.23-19.39,23.45C154.85,326.33,155,326.75,158.15,330.4Z" style="fill:#FFBD40"></path><g style="isolation:isolate;opacity:0.6000000000000001"><path d="M158.15,330.4c5.54,6.33,10,5.56,17.66,6.76s14.26.78,22,.07c1.57-21.53,4.22-43,4-64.51-6.28.47-13,.21-18.15,3.33-6.86,4.17-7.32,14.88-11.94,22.43-5.46,8.92-12.46,16.23-19.39,23.45C154.85,326.33,155,326.75,158.15,330.4Z"></path></g><polygon points="197.44 304.36 186.76 337.92 200.24 337.92 197.44 304.36" style="isolation:isolate;opacity:0.2"></polygon><path d="M300.62,342.62c-1.23,5.5-2.7,10.89-4.2,17.76h0c-.32,1.47-.65,3-1,4.64-.45,2.28-.9,4.7-1.33,7.34h0c-.48,3-.95,6.2-1.4,9.76-.4,3.08-.77,6.4-1.12,10h0c-.15,1.57-.31,3.19-.45,4.89-.28,3.31-.55,6.84-.79,10.61s-.46,7.95-.66,12.33c-3.26-.08-99.61,0-99.61,0,.54-6.41,1-12.44,1.44-18.26.23-3.23.46-6.39.65-9.51v-.07c.07-1,.13-1.9.18-2.84.15-2.38.28-4.73.4-7.07.29-5.6.51-11.14.65-16.79,0-.24,0-.48,0-.72.08-3.48.13-7,.15-10.62,0-5.2,0-10.57-.11-16.21,0-.1,0-.2,0-.3,0-1.46-.05-2.94-.09-4.44v0c-.12-4.6-.28-9.4-.5-14.45h0c-.27-6.3-.62-13-1.06-20.14-.52-8.45.08-19.68,5.81-24.45h0a9.55,9.55,0,0,1,1.85-1.22,10.32,10.32,0,0,1,3.13-1l30.25-4.71,10.55-1.64,15.54,3,34.1,6.7a11.88,11.88,0,0,1,1.21.3,10.5,10.5,0,0,1,5.5,3.84c3.52,4.71,4.25,13,3.55,24.16C304.13,322.8,302.78,332.88,300.62,342.62Z" style="fill:#FFBD40"></path><path d="M300.62,342.62c-1.23,5.5-2.7,10.89-4.2,17.76h0c-.32,1.47-.65,3-1,4.64-.45,2.28-.9,4.7-1.33,7.34h0c-.48,3-.95,6.2-1.4,9.76-.4,3.08-.77,6.4-1.12,10h0c-.15,1.57-.31,3.19-.45,4.89-.28,3.31-.55,6.84-.79,10.61s-.46,7.95-.66,12.33c-3.26-.08-99.61,0-99.61,0,.54-6.41,1-12.44,1.44-18.26.23-3.23.46-6.39.65-9.51v-.07c.07-1,.13-1.9.18-2.84.15-2.38.28-4.73.4-7.07.29-5.6.51-11.14.65-16.79,0-.24,0-.48,0-.72.08-3.48.13-7,.15-10.62,0-5.2,0-10.57-.11-16.21,0-.1,0-.2,0-.3,0-1.46-.05-2.94-.09-4.44v0c-.12-4.6-.28-9.4-.5-14.45h0c-.27-6.3-.62-13-1.06-20.14-.52-8.45.08-19.68,5.81-24.45h0a9.55,9.55,0,0,1,1.85-1.22,10.32,10.32,0,0,1,3.13-1l30.25-4.71,10.55-1.64,15.54,3,34.1,6.7a11.88,11.88,0,0,1,1.21.3,10.5,10.5,0,0,1,5.5,3.84c3.52,4.71,4.25,13,3.55,24.16C304.13,322.8,302.78,332.88,300.62,342.62Z" style="isolation:isolate;opacity:0.6000000000000001"></path><path d="M260.31,270.31c6.06,4.32,3.49,11.11-1.45,16.66-10.29,11.55-21,15.14-21,15.14-.16-.07-26.73-19.27-8-31.28,3.1-2,4.31-6.71,4.65-11.64a59.79,59.79,0,0,0-.45-11.28c-.09-.94-.24-1.86-.4-2.73s-.34-1.75-.55-2.56L261.38,231c-3.1,4.66-5.46,19.6-4.8,24.41C257.3,260.79,257.51,268.32,260.31,270.31Z" style="fill:#ffb573"></path><path d="M234.6,259.19a59.79,59.79,0,0,0-.45-11.28c-.09-.94-.24-1.86-.4-2.73L255.54,241C251,245.57,244.56,254.83,234.6,259.19Z" style="isolation:isolate;opacity:0.2"></path><path d="M205.07,209.84c.71,4.68,7.34,12.29,7,11.83a2.53,2.53,0,0,1-.27-1.61,17.32,17.32,0,0,1,1.59-6.11c.55,2.62,1.41,8,4.08,8.07,1.06-1.93,2.37-3.69,2.19-5.89.62,2.25,1.18,4.51,1.79,6.76a16.56,16.56,0,0,0,7.4-16.15,11.24,11.24,0,0,0-1.52-4.09A16.91,16.91,0,0,0,223.9,199c-3.38-2.87-7.69-5.22-12-4C203.76,197.32,204.36,205.16,205.07,209.84Z" style="fill:#263238"></path><path d="M210.73,231.59c3.5,19.07,26.33,29.13,41.4,15.47,8.7-7.87,10.09-17.26,11.67-31.9.25-2.22.5-4.55.79-7a26.31,26.31,0,0,0-1.17-11.46,22.87,22.87,0,0,0-2-4.42,25.94,25.94,0,0,0-31-12C211.6,186.64,207.56,214.43,210.73,231.59Z" style="fill:#ffb573"></path><path d="M229.25,204.54a.75.75,0,0,1-.35-.26.89.89,0,0,1,.18-1.24l0,0a8.71,8.71,0,0,1,8-1.36.88.88,0,0,1,.48,1.15v0a.91.91,0,0,1-1.17.5,6.87,6.87,0,0,0-6.34,1.09A.82.82,0,0,1,229.25,204.54Z" style="fill:#263238"></path><path d="M219.59,205.88a.94.94,0,0,0-.78-.33,7.44,7.44,0,0,1-6.27-2.2.92.92,0,0,0-1.28-.12h0a.93.93,0,0,0-.14,1.26h0a9.09,9.09,0,0,0,7.85,2.81.9.9,0,0,0,.83-1A1,1,0,0,0,219.59,205.88Z" style="fill:#263238"></path><path d="M223,226.05a12,12,0,0,1-7.56-2.59c2.93-2.91,6.21-6.18,8.22-9.79Z" style="fill:#ed893e"></path><path d="M216.18,214.76a5.67,5.67,0,0,1-3.89-2,.5.5,0,1,1,.73-.69c1.11,1.17,2.85,2.33,4.81,1.18a.51.51,0,0,1,.69.17.51.51,0,0,1-.18.69A4.26,4.26,0,0,1,216.18,214.76Z" style="fill:#263238"></path><path d="M233.58,230.67a13.3,13.3,0,0,1-10,2.61.47.47,0,0,1-.42-.49.43.43,0,0,1,.45-.41h0a12.63,12.63,0,0,0,10.6-3.48.44.44,0,0,1,.61,0l0,0a.48.48,0,0,1,0,.64Q234.26,230.15,233.58,230.67Z" style="fill:#263238"></path><path d="M253.85,243a15.39,15.39,0,0,0,6.37-2.79c0,2.53,1.7,6.87,1.7,6.87,8.05-2.65,14.68-18.76,15.57-24.1,4.48,8.32,4.09,3.54,4.44,0,.5-5.09.62-10.36-1.11-15.16s-5.7-9.09-10.74-9.92a5.27,5.27,0,0,0-4.85,2.28,14.11,14.11,0,0,0-1.66,5C261.23,217.79,261.33,232.54,253.85,243Z" style="fill:#263238"></path><path d="M265.27,214c-6.16.13-9.93,7.9-10.58,13.22-.77,5.91,3.21,10.78,8.92,8.16a17.64,17.64,0,0,0,9.2-10.11C274.71,219.8,271.43,213.89,265.27,214Z" style="fill:#ffb573"></path><path d="M282.36,312.13s-7.48,33.85-2.29,54.28,15.55,30.73,15.55,30.73l1.85-85Z" style="isolation:isolate;opacity:0.2"></path><path d="M295.62,397.14v0a8.78,8.78,0,0,1-4.46-.1c-.28,3.31-.55,6.84-.79,10.61-5.95,3.19-32.48-6.18-55.75-15.53-5.13-2.06-10.1-4.13-14.65-6.06-1.62-.67-3.17-1.34-4.66-2-3.09-1.32-5.91-2.55-8.37-3.63-2-.87-3.76-1.65-5.22-2.31-3.05-1.35-4.8-2.15-4.8-2.15l4.73.31L239,378.7l9.65.63,1.94.11,11.95.77,8.16.52.42,0,7.92.51,6.45.41,7.2.46,2.89.19s.16,2,.21,5.35v.12C295.86,390.26,295.83,393.45,295.62,397.14Z" style="isolation:isolate;opacity:0.2"></path><path d="M311,342.75c-1.48,15.64-3.66,31.09-5.46,41.23-1.25,7.06-5.24,12-9.92,13.18a8.78,8.78,0,0,1-4.46-.1c-.22-.06-.43-.13-.65-.21l-35.8-9.23-.31-.09-3.83-1,.06-7.1v-.57l0-2.81.08-8.87,4.84.26,23.65,1.26a3.19,3.19,0,0,0,1.47.06c2.05-.39,3.75-2.79,4-5.95l.46-6.86,1-15.13,1.93-28.71,1.77-26.58a48.35,48.35,0,0,1,1.35-8.5v0h0a19.43,19.43,0,0,1,8.58,2.41c5.57,3,11.62,9.37,12.6,22.43C313.18,312.71,312.42,327.81,311,342.75Z" style="fill:#ffb573"></path><path d="M268.05,390.19l-52.54-10.14a9.36,9.36,0,0,0-4.43-.29l-14.8,2.54a9.43,9.43,0,0,1-8.69-3.06l-7-7.94a9.47,9.47,0,0,1,1.09-13.6l2.51-2.06a9.45,9.45,0,0,1,11.64-.28h0a9.43,9.43,0,0,0,5.93,1.86l.87,0a9.45,9.45,0,0,1,9.15,6.15l.82,2.19,42.83,1.64Z" style="fill:#ffb573"></path><path d="M205.07,366.81c2.51-.49,5-.89,7.52-1.3l-.81-2.16a9.45,9.45,0,0,0-9.15-6.15l-.87,0a9.43,9.43,0,0,1-5.93-1.86,9.45,9.45,0,0,0-11.64.28l-2.51,2.06A9.48,9.48,0,0,0,179.1,369C183.89,369.45,201.08,367.59,205.07,366.81Z" style="isolation:isolate;opacity:0.1"></path><path d="M284.52,379.42h0a39.28,39.28,0,0,1-5.43,1.85h0c-3.49,1-8.3,2.26-13.91,3.66-3.34.83-7,1.7-10.76,2.6h0c-6.28,1.5-13,3.07-19.74,4.6-17.59,4-35,7.83-43.08,9.6.23-3.23.46-6.39.65-9.51-1.41.21-2.73.34-4,.4l0-.24.31-2.21,3.8-.86,9.67-2.2,13.27-3,9.72-2.21,14-3.19,11.62-2.64,8.57-1.95,6.44-1.46s11.73,1.22,17.37,3.19C286,376.85,287.25,378.06,284.52,379.42Z" style="isolation:isolate;opacity:0.2"></path><path d="M174.16,365.1l80.63-1.49a9.55,9.55,0,0,0,4.21-1.39l12.78-7.91a9.43,9.43,0,0,1,9.2-.42l9.46,4.73a9.49,9.49,0,0,1,4.09,13L293,374.5a9.46,9.46,0,0,1-10.69,4.62h0c-2.06-.54-15,1.57-17.78-1.42L262.93,376l-64.15,15.1a49.88,49.88,0,0,1-13.89,1.27h0Z" style="fill:#ffb573"></path><path d="M332.4,338.18a17.56,17.56,0,0,1-7.39,3.07c-17.38,2.88-28.39,1.42-42.4-1C280.14,317,280.76,299,285.22,286c1.49-4.32,5.75-10.61,10.31-10.42,19.37.81,22.67,20.29,24.88,29.28A159.24,159.24,0,0,0,332.4,338.18Z" style="fill:#FFBD40"></path><path d="M332.4,338.18a17.56,17.56,0,0,1-7.39,3.07c-17.38,2.88-28.39,1.42-42.4-1C280.14,317,280.76,299,285.22,286c1.49-4.32,5.75-10.61,10.31-10.42,19.37.81,22.67,20.29,24.88,29.28A159.24,159.24,0,0,0,332.4,338.18Z" style="isolation:isolate;opacity:0.6000000000000001"></path><path d="M249.61,204.78c2.39-6.16,5.89-9.25,3.82-8.83-5.6,1.15-9.28-3.7-13.29-.67-1.91,2.43.61,6.68.7,6.44-2,1.09-4.65.43-6.42-1s-2.49-4.12-3.43-6.22a12.81,12.81,0,0,0,.49,7.12c-1.43,1.27-4.59-.85-6-2.09a13.84,13.84,0,0,1-3.26-5.16c-.42,2.12-.75,4.29.86,6.75-2.11.21-4.9-.32-6.36-1.86a7.69,7.69,0,0,1-2.08-6.08c-.43,1.1-.3,5.55.68,6.21-3.68-1-7.21-5.46-7.2-9.28a12,12,0,0,1,5.47-9.56c1.56-1,3.32-1.78,5-2.7,2.54-1.41,18.51-14.72,43.44-1.53,15.48,8.18,13.35,26,11.64,28-2.12,2.47-5.59,3.43-8.84,3.25S249,206.41,249.61,204.78Z" style="fill:#263238"></path><path d="M252.93,195.9a15.92,15.92,0,0,0-4.1,13.1c.71,4.68,7.35,12.3,7,11.83a2.53,2.53,0,0,1-.27-1.61,17.32,17.32,0,0,1,1.59-6.11c.56,2.62,1.41,8,4.09,8.07,1.06-1.93,2.36-3.69,2.18-5.89.62,2.25,1.18,4.51,1.8,6.76a16.58,16.58,0,0,0,7.4-16.15,11.26,11.26,0,0,0-1.53-4.09,16.67,16.67,0,0,0-3.46-3.61c-3.38-2.87-7.86-5.73-12-4C255.11,194.43,252.77,195.28,252.93,195.9Z" style="fill:#263238"></path><path d="M236.27,211.1c0,1.56-.83,2.81-1.83,2.84s-1.82-1.21-1.9-2.81.83-2.81,1.84-2.83S236.28,209.56,236.27,211.1Z" style="fill:#263238"></path></g><g id="freepik--Sparkles--inject-1343"><path d="M82.31,355.41a52,52,0,0,0,1-6.84c1-7.73,5.54-13.71,11.31-14.88l4.17-.86s-6.54,0-9.27-1.91c-5.78-4-7.11-16-7.11-16s-1.62,12-7.41,16c-2.73,1.91-9.27,1.91-9.27,1.91l4.17.86c5.78,1.17,10.36,7.15,11.32,14.88A53.06,53.06,0,0,0,82.31,355.41Z" style="fill:#FFBD40"></path><g style="opacity:0.7000000000000001"><path d="M82.31,355.41a52,52,0,0,0,1-6.84c1-7.73,5.54-13.71,11.31-14.88l4.17-.86s-6.54,0-9.27-1.91c-5.78-4-7.11-16-7.11-16s-1.62,12-7.41,16c-2.73,1.91-9.27,1.91-9.27,1.91l4.17.86c5.78,1.17,10.36,7.15,11.32,14.88A53.06,53.06,0,0,0,82.31,355.41Z" style="fill:#fff"></path></g><path d="M368,268.71a44.33,44.33,0,0,0,.9-5.9c.83-6.66,4.78-11.81,9.76-12.83l3.59-.73s-5.64,0-8-1.65c-5-3.49-6.13-13.8-6.13-13.8s-1.4,10.31-6.38,13.8c-2.35,1.65-8,1.65-8,1.65l3.6.73c5,1,8.93,6.17,9.75,12.83A46.35,46.35,0,0,0,368,268.71Z" style="fill:#FFBD40"></path><g style="opacity:0.7000000000000001"><path d="M368,268.71a44.33,44.33,0,0,0,.9-5.9c.83-6.66,4.78-11.81,9.76-12.83l3.59-.73s-5.64,0-8-1.65c-5-3.49-6.13-13.8-6.13-13.8s-1.4,10.31-6.38,13.8c-2.35,1.65-8,1.65-8,1.65l3.6.73c5,1,8.93,6.17,9.75,12.83A46.35,46.35,0,0,0,368,268.71Z" style="fill:#fff"></path></g><path d="M167.64,162.66c.2-.08.74-4,1.32-8.66,1.21-9.79,7-17.36,14.33-18.85l5.28-1.08s-8.29,0-11.74-2.42c-7.33-5.12-9-20.26-9-20.26s-2,15.14-9.37,20.26c-3.46,2.42-11.74,2.42-11.74,2.42l5.28,1.08c7.31,1.49,13.11,9.06,14.32,18.85C166.9,158.7,167.43,162.58,167.64,162.66Z" style="fill:#FFBD40"></path><g style="opacity:0.7000000000000001"><path d="M167.64,162.66c.2-.08.74-4,1.32-8.66,1.21-9.79,7-17.36,14.33-18.85l5.28-1.08s-8.29,0-11.74-2.42c-7.33-5.12-9-20.26-9-20.26s-2,15.14-9.37,20.26c-3.46,2.42-11.74,2.42-11.74,2.42l5.28,1.08c7.31,1.49,13.11,9.06,14.32,18.85C166.9,158.7,167.43,162.58,167.64,162.66Z" style="fill:#fff"></path></g><path d="M397.34,379.32c.21-.08.75-4,1.33-8.66,1.21-9.79,7-17.36,14.33-18.85l5.28-1.08s-8.29,0-11.75-2.42c-7.32-5.13-9-20.27-9-20.27s-2,15.14-9.38,20.27c-3.45,2.42-11.74,2.42-11.74,2.42l5.28,1.08c7.32,1.49,13.12,9.06,14.33,18.85C396.6,375.36,397.14,379.24,397.34,379.32Z" style="fill:#FFBD40"></path><g style="opacity:0.7000000000000001"><path d="M397.34,379.32c.21-.08.75-4,1.33-8.66,1.21-9.79,7-17.36,14.33-18.85l5.28-1.08s-8.29,0-11.75-2.42c-7.32-5.13-9-20.27-9-20.27s-2,15.14-9.38,20.27c-3.45,2.42-11.74,2.42-11.74,2.42l5.28,1.08c7.32,1.49,13.12,9.06,14.33,18.85C396.6,375.36,397.14,379.24,397.34,379.32Z" style="fill:#fff"></path></g><path d="M313.16,165a33.27,33.27,0,0,0,.67-4.38c.61-4.94,3.54-8.77,7.24-9.53l2.67-.54s-4.19,0-5.93-1.22c-3.71-2.59-4.56-10.25-4.56-10.25s-1,7.66-4.73,10.25c-1.75,1.22-5.94,1.22-5.94,1.22l2.67.54c3.7.76,6.63,4.59,7.24,9.53A35.36,35.36,0,0,0,313.16,165Z" style="fill:#FFBD40"></path><g style="opacity:0.7000000000000001"><path d="M313.16,165a33.27,33.27,0,0,0,.67-4.38c.61-4.94,3.54-8.77,7.24-9.53l2.67-.54s-4.19,0-5.93-1.22c-3.71-2.59-4.56-10.25-4.56-10.25s-1,7.66-4.73,10.25c-1.75,1.22-5.94,1.22-5.94,1.22l2.67.54c3.7.76,6.63,4.59,7.24,9.53A35.36,35.36,0,0,0,313.16,165Z" style="fill:#fff"></path></g><path d="M84.16,226.53a31.41,31.41,0,0,0,.67-4.38c.61-4.94,3.55-8.77,7.24-9.53l2.67-.54s-4.19,0-5.93-1.22c-3.7-2.59-4.55-10.24-4.55-10.24s-1,7.65-4.74,10.24c-1.75,1.22-5.94,1.22-5.94,1.22l2.67.54c3.7.76,6.63,4.59,7.24,9.53A35.36,35.36,0,0,0,84.16,226.53Z" style="fill:#FFBD40"></path><g style="opacity:0.7000000000000001"><path d="M84.16,226.53a31.41,31.41,0,0,0,.67-4.38c.61-4.94,3.55-8.77,7.24-9.53l2.67-.54s-4.19,0-5.93-1.22c-3.7-2.59-4.55-10.24-4.55-10.24s-1,7.65-4.74,10.24c-1.75,1.22-5.94,1.22-5.94,1.22l2.67.54c3.7.76,6.63,4.59,7.24,9.53A35.36,35.36,0,0,0,84.16,226.53Z" style="fill:#fff"></path></g></g></svg>