<svg xmlns="http://www.w3.org/2000/svg" viewBox="0 0 500 500"><g id="freepik--Character--inject-311"><path d="M181,403.8c-2.18-1.39-45.81-58.61-46.16-61.76-.06-.36,11.06-8.63,11.06-8.63,4.37-3.57,47.22-26.8,47.22-26.8l28.13,37.88-41.64,19.94s3,10.12,5.17,19.24c0,0,0,0,0,0,1.37,5.62,2.47,10.57,2.49,11.9C187.32,399.08,183.2,405.19,181,403.8Z" style="fill:#f4f4f4"></path><path d="M181,403.79c-2.18-1.38-45.81-58.59-46.16-61.75-.06-.36,11.06-8.63,11.06-8.63,1.44-1.16,7-4.47,13.92-8.38l27.3,35.8-7.51,3.6s3,10.12,5.17,19.25v0c1.37,5.62,2.48,10.57,2.49,11.9C187.32,399.08,183.2,405.19,181,403.79Z" style="fill:#ebebeb"></path><path d="M181.06,404.08c-2.22-1.48-46.62-58.66-46.92-61.9-.14-1.24,19.18-14.79,19.28-14.88l28.51,36.49-.63.47s6.43,27.89,6.39,31.5S183.27,405.56,181.06,404.08Z" style="fill:#0099FB"></path><path d="M181.06,404.08c-2.22-1.48-46.62-58.66-46.92-61.9-.14-1.24,19.18-14.79,19.28-14.88l28.51,36.49-.63.47s6.43,27.89,6.39,31.5S183.27,405.56,181.06,404.08Z" style="opacity:0.5"></path><path d="M182.77,401.71c-7.25-9.82-37.4-48.75-45.31-57.91-.06-.08-.12,0-.06.05,7,9.89,37.44,48.57,45.21,58C182.78,402,182.92,401.92,182.77,401.71Z" style="fill:#263238"></path><path d="M184.24,366.4c-2.24-4.34-6.42-8.53-11.37-9.34-.2,0-.24.25-.1.34a68,68,0,0,1,11,9.35A.3.3,0,0,0,184.24,366.4Z" style="fill:#263238"></path><path d="M184.71,370.41c-2.23-4.34-6.42-8.53-11.37-9.33-.19,0-.23.24-.1.33a67.18,67.18,0,0,1,11,9.36A.31.31,0,0,0,184.71,370.41Z" style="fill:#263238"></path><path d="M185.19,374.43c-2.24-4.34-6.42-8.53-11.37-9.33-.19,0-.23.24-.1.33a68,68,0,0,1,11,9.36A.31.31,0,0,0,185.19,374.43Z" style="fill:#263238"></path><path d="M196.33,364.92c.9-3.08-2.18-5.14-4.74-5.69a25.49,25.49,0,0,0-13.22.89.12.12,0,0,0-.06.19.59.59,0,0,0,0,1c3.6,2.24,7.16,5.07,11.32,6.14C192.05,368,195.49,367.83,196.33,364.92Zm-11.9-1.37c-1.79-1.06-3.52-2.19-5.35-3.18a73.68,73.68,0,0,1,7.73-.35,27.61,27.61,0,0,1,3.73.32c1.9.34,7.55,3.11,2.87,5.67C190.84,367.42,186.57,364.81,184.43,363.55Z" style="fill:#263238"></path><path d="M171.88,349.71c1.09,4.16,4,7.7,6.21,11.27a.59.59,0,0,0,1,0,.13.13,0,0,0,.2-.06,25.69,25.69,0,0,0,.8-13.22c-.58-2.56-2.66-5.62-5.73-4.7C171.41,343.84,171.24,347.28,171.88,349.71Zm1.37-3.81c2.52-4.69,5.34.94,5.69,2.84a27.38,27.38,0,0,1,.35,3.72,76.8,76.8,0,0,1-.3,7.74c-1-1.83-2.15-3.55-3.22-5.33C174.5,352.74,171.86,348.49,173.25,345.9Z" style="fill:#263238"></path><path d="M183.4,365.5,152.68,326s90.61-46.46,90.87-52.37c.13-3-31.75-30.85-37.89-48.69-3.92-11.41,5.48-26.65,5.48-26.65l46.69-1.33s-1.9,19.4-1.39,21.88c.32,1.65,47,54.26,39.19,74.13C286,317.28,183.4,365.5,183.4,365.5Z" style="fill:#37474f"></path><path d="M190.11,359.57c-.65-1.24-8.1-12-9.82-14.39-3.47-4.74-6.95-9.48-10.5-14.15-1.86-2.44-5.82-7.68-6.13-7.9a.16.16,0,0,0-.22.22c3.19,4.89,6.57,9.65,9.94,14.42s15.28,20.74,16.46,22C190,359.84,190.2,359.75,190.11,359.57Z" style="fill:#263238"></path><path d="M254.15,465.13c-2.42-.93-55.87-46.33-56.84-49.35-.18-1.42,4.9-8.86,11.51-17.87L230,353.34l35,28.43L245,426.82s4.92,9.33,8.9,17.83c0,0,0,0,0,0,2.46,5.24,4.53,9.87,4.81,11.17C259.37,459.25,256.55,466.07,254.15,465.13Z" style="fill:#f4f4f4"></path><path d="M255.23,466.08c-2.49-1-58.1-47.32-59.09-50.43-.4-1.17,5.87-9.65,13.74-19.69.09-.1.17-.21.25-.31l36.21,29.51-.52.59s13.36,27.25,14.1,30.78S257.71,467.06,255.23,466.08Z" style="fill:#0099FB"></path><path d="M255.23,466.08c-2.49-1-58.1-47.32-59.09-50.43-.4-1.17,5.87-9.65,13.74-19.69.09-.1.17-.21.25-.31l36.21,29.51-.52.59s13.36,27.25,14.1,30.78S257.71,467.06,255.23,466.08Z" style="opacity:0.5"></path><path d="M256.39,463.4c-9.18-8-47-39.62-56.66-46.87-.08-.06-.12,0,0,.06,8.93,8.17,47,39.44,56.58,47C256.47,463.72,256.58,463.58,256.39,463.4Z" style="fill:#263238"></path><path d="M250.25,428.59c-3.11-3.77-8.1-7-13.1-6.69-.2,0-.18.29,0,.35A67.63,67.63,0,0,1,249.85,429,.3.3,0,0,0,250.25,428.59Z" style="fill:#263238"></path><path d="M251.58,432.41c-3.12-3.76-8.1-7-13.11-6.69-.19,0-.17.29,0,.35a67.86,67.86,0,0,1,12.72,6.79A.31.31,0,0,0,251.58,432.41Z" style="fill:#263238"></path><path d="M252.9,436.23c-3.11-3.76-8.09-7-13.1-6.68-.19,0-.18.28,0,.35a67,67,0,0,1,12.73,6.78A.3.3,0,0,0,252.9,436.23Z" style="fill:#263238"></path><path d="M261.74,424.55c.22-3.2-3.23-4.55-5.85-4.55a25.67,25.67,0,0,0-12.71,3.71.12.12,0,0,0,0,.2.59.59,0,0,0,.19.94c4,1.42,8.07,3.42,12.37,3.57C258.23,428.51,261.54,427.58,261.74,424.55Zm-11.91,1.21c-2-.65-3.91-1.39-5.91-2a76.84,76.84,0,0,1,7.47-2,27.49,27.49,0,0,1,3.71-.48c1.93-.08,8,1.42,4,4.92C256.91,428.17,252.18,426.53,249.83,425.76Z" style="fill:#263238"></path><path d="M234.61,414.93c2,3.83,5.51,6.68,8.48,9.68a.59.59,0,0,0,.93-.22.13.13,0,0,0,.18-.11,25.63,25.63,0,0,0-2.06-13.09c-1.1-2.37-3.79-4.92-6.6-3.36C232.89,409.3,233.46,412.69,234.61,414.93Zm.52-4c1.46-5.12,5.41-.22,6.16,1.56a26.33,26.33,0,0,1,1.14,3.56,76,76,0,0,1,1.37,7.62c-1.37-1.57-2.86-3-4.29-4.52C237.82,417.33,234.33,413.74,235.13,410.91Z" style="fill:#263238"></path><path d="M249.42,428.34,208.85,394.8s39.53-83.29,39.7-89.76c.22-8.62-47.48-43.75-51.88-70.68-2.17-13.23,6.12-35.84,6.12-35.84L254.9,197s.74,14.7-2.18,22.53c-.55,1.47-4.45,3.15-4.45,3.15s47.26,58.57,48.69,86.71C297.92,328.38,249.42,428.34,249.42,428.34Z" style="fill:#37474f"></path><path d="M255.53,218.18a22.06,22.06,0,0,0-4,1.62q-2,1-3.94,2.12a77.9,77.9,0,0,0-7.28,5,.07.07,0,0,0,.08.12c2.5-1.58,5.1-3,7.7-4.41l3.76-2a38.59,38.59,0,0,0,3.79-2.07C255.83,218.44,255.72,218.13,255.53,218.18Z" style="fill:#263238"></path><path d="M253.87,203.68c-.47,2.6-.86,5.22-1.42,7.81-.26,1.19-.51,2.4-.87,3.56-.31,1-.8,2.1-1.89,2.39-1.26.33-1.7-.73-1.66-1.79a32.7,32.7,0,0,1,.41-3.55c.17-1.34.35-2.69.51-4,.07-.68.53-3.85.54-3.89s0-.13-.08-.19a.11.11,0,0,0-.12,0,12.19,12.19,0,0,0-.77,2.72c-.27,1.25-.53,2.5-.76,3.76s-.45,2.51-.67,3.76a5.81,5.81,0,0,0-.05,2.87,2.17,2.17,0,0,0,2.12,1.5l-.12.26c-.09.26-.15.53-.23.8s-.15.54-.21.82a2.57,2.57,0,0,0,0,.4c0,.15,0,.29,0,.44a.21.21,0,0,0,.4.12c.06-.14.15-.25.22-.38a1.63,1.63,0,0,0,.15-.44c.07-.26.13-.52.18-.79s.11-.53.14-.79a3.85,3.85,0,0,0,0-.48,3,3,0,0,0,1.45-.66,5,5,0,0,0,1.37-2.45c.32-1.09.54-2.21.77-3.33a48.06,48.06,0,0,0,1.07-8.36A.24.24,0,0,0,253.87,203.68Z" style="fill:#263238"></path><path d="M251.22,417.61a40,40,0,0,0-3.08-2.89l-3.32-3q-3.3-2.88-6.65-5.69c-4.52-3.75-9.06-7.49-13.65-11.16-2.39-1.91-7.51-6-7.86-6.17a.15.15,0,0,0-.16.26c4.3,3.95,8.74,7.74,13.18,11.54s8.87,7.58,13.43,11.21c1.26,1,2.54,2,3.81,3a50.68,50.68,0,0,0,4.08,3.08C251.14,417.9,251.35,417.75,251.22,417.61Z" style="fill:#263238"></path><path d="M248.3,308.47c.66-1.65,1.45-3.35.89-5.14s-16-18.46-17.71-20.38c-.08-.09-.23,0-.15.11,1.44,1.67,15.11,17.79,16.15,19.45a4.13,4.13,0,0,1,.73,2.3,9.24,9.24,0,0,1-.88,2.94L245,313.63c-1.59,3.94-3.17,7.87-4.82,11.79-1.87,4.43-3.72,9.16-5.77,13.51-.16.34.34.53.52.22C239.23,331.4,247.47,310.52,248.3,308.47Z" style="fill:#263238"></path><path d="M248.27,222.68c7.28,7.48,16.76,21.85,22.7,30.42a216.48,216.48,0,0,1,16,27.15c2.61,5.3,4.92,10.71,7.1,16.2,0,.11-.13.16-.17.05a241.29,241.29,0,0,0-14.24-28.05c-5.29-9-26.78-40.48-31.95-45.32C247.47,222.87,248,222.4,248.27,222.68Z" style="fill:#263238"></path><path d="M229.83,205.64c0-.11-.17-.09-.19,0-.57,4.2-.9,8.56-2.93,12.38-1.86,3.5-5.11,5.76-8.65,7.34a64.4,64.4,0,0,1-6.31,2.32c-.15.05-.12.29.05.26,4-.84,8.1-1.78,11.6-4,3.74-2.42,5.66-6.28,6.28-10.61A37.12,37.12,0,0,0,229.83,205.64Z" style="fill:#263238"></path><path d="M234.82,146.24c19.34-5,43.73-14.6,48.52-21.71,3.87-5.73,7.43-36.49,7.57-38.14.31-4.09-26.47-10.49-27-6.13-.73,5.74-1.5,30.7-2.95,32.18S247.19,123.5,233,134.29C223.19,141.74,222.83,149.31,234.82,146.24Z" style="fill:#d3766a"></path><path d="M263.5,84.62c-.42-10.28.22-21.83,6.14-31a5.44,5.44,0,0,1,2.74-2.26c2.58-4.17,5.32-4.2,5.32-4.2,3.6-3.15,6.41-2.8,6.41-2.8s3.08-4.86,6.33-3.49c3.65,1.54-1.4,8.06-2,13.35-1.32,12.12,0,31.49,0,35Z" style="fill:#d3766a"></path><path d="M278.17,65.9a78,78,0,0,1,1.76-10.54,80.34,80.34,0,0,1,4.24-10.92.1.1,0,0,0-.17-.09,41.5,41.5,0,0,0-6,21.53C278,66.05,278.15,66.08,278.17,65.9Z"></path><path d="M270.75,66.16c.64-3.44,1.8-9.47,7.08-19,0,0,0-.07-.06,0a37.15,37.15,0,0,0-7.19,19C270.56,66.35,270.7,66.39,270.75,66.16Z"></path><path d="M266.75,66.23c1.31-5.81,2.87-9.3,5.66-14.88,0,0,0-.07-.06,0-3.83,6-4.54,8.63-5.8,14.9C266.5,66.42,266.7,66.45,266.75,66.23Z"></path><path d="M352.5,51.59c-.21,0-5.39-.64-7.12-4.78-.87-2.06-1.6-4.39-2.31-6.64-1.4-4.44-2.85-9-4.76-9.39-1.76-.34-6.09.18-16.72,4.57-6.43,2.65-12.14,5.49-12.2,5.52l-.6-1.2c.94-.47,23.14-11.47,29.77-10.21,2.69.51,4.13,5,5.79,10.3.7,2.23,1.43,4.53,2.26,6.53,1.43,3.41,6,4,6,4Z" style="fill:#0099FB"></path><path d="M364,50.37c-.06,0-5.54-1.28-7.93-1a9.2,9.2,0,0,0-4,1.56l-.82-1.06A10.32,10.32,0,0,1,356,48c2.62-.31,8.16,1,8.39,1Z" style="fill:#0099FB"></path><path d="M361.84,59.07c-.67-.19-6.57-1.88-8-3.4a24.22,24.22,0,0,1-2.75-4.15l1.19-.62a22.13,22.13,0,0,0,2.55,3.87c.86.93,5,2.34,7.34,3Z" style="fill:#0099FB"></path><path d="M365.56,53c-.06,0-5.76-1.34-7.34-1.68a36.34,36.34,0,0,0-6.49.11l-.12-1.34c.53,0,5.25-.45,6.9-.08s7.3,1.67,7.35,1.68Z" style="fill:#0099FB"></path><path d="M363.83,57s-4.14-1.52-5.56-1.82-6.42-3.28-7-3.61l.7-1.15c2.09,1.27,5.55,3.24,6.56,3.45,1.51.32,5.57,1.81,5.75,1.87Z" style="fill:#0099FB"></path><polygon points="316.73 56.19 277.06 66.56 302.36 34.12 341.16 23.45 316.73 56.19" style="fill:#263238"></polygon><g style="opacity:0.1"><polygon points="316.73 56.19 277.06 66.56 302.36 34.12 341.16 23.45 316.73 56.19"></polygon></g><path d="M301.3,70.56l-7.81-9.43s7.24-11.51,15.28-16.74,20.41-7.64,20.41-7.64l6.49,11.42s-12.22,4.75-18.62,9.1S301.3,70.56,301.3,70.56Z" style="fill:#0099FB"></path><path d="M301.3,70.56l0,0c.57-.55,9.53-9,15.72-13.25s18.24-9,18.61-9.11h0l-6.49-11.42s-12.38,2.41-20.42,7.64-15.27,16.74-15.27,16.74Z" style="fill:#263238"></path><path d="M306.47,46.74l0,0S306.49,46.75,306.47,46.74Z" style="fill:#263238"></path><path d="M328.08,51.17a17.63,17.63,0,0,1,2.26-.82v0h-.05c-2,.88-4.36,2-6.67,3.12-1.76.89-3.49,1.82-5,2.76-.55.33-1.07.66-1.56,1-.71.48-1.47,1-2.24,1.62l-.05,0-.65-.89q2.72-2.17,5.56-4.13l-.6.32c-.86.54-1.71,1.11-2.55,1.67-1.17.79-2.33,1.59-3.46,2.39l0,0L312,57l0,0c.5-.38,1-.78,1.5-1.15l-.8-.76c.48-.54.93-1,1.42-1.5l0,0-1.13-1.25.68-.63c-1,.65-1.92,1.34-2.84,2.07l-1.22-1.5h0l.14-.11c.75-.6,1.5-1.19,2.25-1.76l-.69-.9-.72.57-1.05-1.21,0,0,.08-.07a48.07,48.07,0,0,1,5.48-4.08,24.72,24.72,0,0,0-6.66,3.75h0l-.08-.09,0,0-.06-.07,0,0-.07-.09,0,0h0l-.12-.14-.3-.37-.05-.06-.05-.07h0c.5-.4,1-.78,1.53-1.15,1.58-1.17,3.2-2.29,4.88-3.32a62.43,62.43,0,0,0-7.65,3.78v0a.1.1,0,0,1-.05,0h0l-.06,0h0l0,0c-.15.32-.32,0-.38-.32l.42-.35c.34-.28.68-.54,1-.8l.13-.09c.75-.44,1.52-.86,2.29-1.27,1.84-1,3.68-2,5.55-3,1.25-.52,2.49-1,3.7-1.41-1,.51-2,1.06-3,1.62a39.08,39.08,0,0,1,4-1.25l.08,0,.3,1a34.23,34.23,0,0,0-3.49,1.72c.49-.13,1-.25,1.49-.34a48.83,48.83,0,0,1,5.58-.43l-1.58.71.35,1.35h0l.58,1.52-.39.2.16.54c.87-.36,1.76-.69,2.66-1l.7,1.78a43.88,43.88,0,0,0-5.3,3.2c1.87-.81,3.76-1.53,5.7-2.2h0l.58,1.67h0c-.28.1-.55.21-.83.33,2.32-.38,5.11-.65,6.57-.86l-6.11,2.22a21.94,21.94,0,0,0-2.95,1.4c1.29-.56,2.59-1.08,3.91-1.57Z" style="fill:#37474f"></path><path d="M287.79,68.89c.45,1.65,1.32,1.42,2.5-1.38s3.46-14.86,7.6-13.71-.09,17.82-1.64,22.64a34.65,34.65,0,0,1-8.32,13.4C287.94,86.4,287.85,75.64,287.79,68.89Z" style="fill:#d3766a"></path><path d="M262.91,82l31.68,9.83s-7.69,31.37-12.88,35.71-31.67,15.89-46,18.78-11.68-4.48-4.66-11S260,112.43,260.3,111.88,262.91,82,262.91,82Z" style="fill:#263238"></path><path d="M287.45,96.88c-1.06-.37-2.11-.77-3.18-1.11l-6.67-2.13q-3.33-1.06-6.69-2.08c-2.23-.68-4.51-1.28-6.73-2-.1,0-.16.12-.06.15,2.19.81,4.34,1.72,6.54,2.51s4.49,1.56,6.76,2.28,4.46,1.37,6.7,2c1.13.32,2.28.57,3.41.86s2.19.6,3.31.8a.07.07,0,0,0,0-.13C289.75,97.61,288.59,97.27,287.45,96.88Z" style="fill:#37474f"></path><path d="M255.22,140.24a135,135,0,0,1-19.52,6.08c-14.35,2.89-11.69-4.48-4.67-11,1.63-1.5,4.05-3.54,6.84-5.8Z" style="fill:#37474f"></path><path d="M193.45,216.47l65.89-4.63s-5-46.22-18.3-77.72c-3.92-9.32-16-11.1-23.93.07C200.35,157.72,193.5,217.36,193.45,216.47Z" style="fill:#ebebeb"></path><path d="M224.44,127.76s4.78,24.75,6.43,42.48c2.21,23.68,28.81,136.5,19.7,150.48-8.46,13-82.89-24.54-82.89-24.54s18.46-48.74,19-56.84C187.12,231.93,197.15,138.63,224.44,127.76Z" style="fill:#263238"></path><path d="M190.34,243.78c.57,0,1.95-14.66-1-16.88s-9.47,2.1-9.53,6.32C179.81,236.91,188.69,243.75,190.34,243.78Z" style="fill:#0099FB"></path><path d="M189.63,243.28c.35.24-4.82-12.74-8.59-11.92C179.8,231.64,178.08,235.37,189.63,243.28Z" style="opacity:0.1"></path><path d="M189.74,243c0-.57,14.63-2.28,16.92.56s-1.88,9.5-6.11,9.65C196.86,253.37,189.81,244.66,189.74,243Z" style="fill:#0099FB"></path><path d="M190.26,243.72c-.26-.35,12.86,4.52,12.12,8.3C202.14,253.27,198.44,255.06,190.26,243.72Z" style="opacity:0.1"></path><path d="M217.83,268.92s1.8,10.3-8.93,9.64l-59.06-52.25s.08-7.91,10.32-9.52Z" style="fill:#ebebeb"></path><rect x="177.64" y="245.26" width="14.64" height="6" transform="translate(-123.06 217.18) rotate(-47.55)" style="fill:#0099FB"></rect><path d="M149.84,226.31s11.31.27,10.32-9.52C160.16,216.79,151.16,216.43,149.84,226.31Z" style="fill:#dbdbdb"></path><path d="M212.1,135.4c-7.5,4.37-31,27.46-34.25,36.56-3.7,10.5-3.56,38.23-4.13,43.62-.41,3.86,28.91,9.21,30.57,5.52,2.33-5.16-2.27-33.86-2.33-42.27,0-3.24,14.95-27.52,18.38-33.57C227.32,133,220.47,130.53,212.1,135.4Z" style="fill:#d3766a"></path><path d="M204.32,213.66s5.26,17.5-.75,34.35c-1.74,4.9-13.68,23.45-18.27,20.73-4.15-2.47,7.88-17.24,7.88-17.24s-10.82,16-15.28,12.09,11.36-18.77,11.36-18.77S177.77,261,173.81,256.26c-3-3.58,10.57-17.87,10.57-17.87s-10,13.83-13.2,10.28c-3.58-3.92,8.11-17.89,8.11-17.89-6.71-10.4-6.44-17.64-4-23.62C175.83,205.91,204.32,213.66,204.32,213.66Z" style="fill:#d3766a"></path><path d="M197.28,246.21c-1.21,1.92-2.41,3.88-3.78,5.69s-2.81,3.57-4.34,5.25a39,39,0,0,1-6.58,5.94c4.06-3.37,9.06-9.77,10.43-11.58s2.83-3.55,4.2-5.35C197.24,246.11,197.3,246.17,197.28,246.21Z" style="fill:#37474f"></path><path d="M190.83,241.15c-1.64,2.38-3.18,4.82-4.93,7.13s-3.6,4.35-5.49,6.53c-.15.16-.19,0,0-.14,1.81-2.26,3.3-4.48,5.08-6.76s3.65-4.48,5.34-6.81C190.8,241.07,190.86,241.11,190.83,241.15Z" style="fill:#37474f"></path><path d="M186.08,235.8a64.48,64.48,0,0,1-8.38,10.34c-.15.16-.18,0,0-.19,2.85-3.38,5.11-6,8.29-10.23C186,235.66,186.13,235.72,186.08,235.8Z" style="fill:#37474f"></path><path d="M206.34,215.1l-34.85-2.57s2.9-38.1,6.31-43.87,18-21.43,31.32-32.13,18.3-3.82,12,8.43-17.51,31.35-17.89,32.8S206.34,215.1,206.34,215.1Z" style="fill:#263238"></path><path d="M203.08,207.34c.14,0,.14-.13,0-.15-4.64-.68-9.37-1-14-1.41-2.32-.19-4.63-.38-7-.55l-3.48-.25a20.87,20.87,0,0,0-3.35-.09c-.1,0-.09.11,0,.13a20.87,20.87,0,0,0,3.17.46l3.47.33c2.37.21,4.74.42,7.11.61C193.69,206.79,198.4,207.25,203.08,207.34Z" style="fill:#37474f"></path><path d="M205.64,207.82c-1.21-9.81-2.27-19.71-2.87-29.58v-.52l.16-.56a147.55,147.55,0,0,1,7.31-13.57c2.59-4.41,5.22-8.79,8-13.09-1.81,3.37-5.48,10.1-7.33,13.45-2.08,3.93-5.36,9.45-7,13.48l-.12.36c0,.44,0,.92,0,1.38,0,1.22.29,4.46.37,5.72.51,6.8,1.17,16.12,1.53,22.93Z" style="fill:#37474f"></path><path d="M214.87,156.22a35.44,35.44,0,0,0,3.28-3.54,5.39,5.39,0,0,1-3.28,3.54Z" style="fill:#37474f"></path><path d="M237.69,128.87s7.72,31.48,10,38.83,11.65,44.14,11.65,44.14S254.15,144.81,237.69,128.87Z" style="fill:#263238"></path><path d="M220.41,127.42c6.16-3.82,18.88-.84,20.18,2.13,1.86,4.24,19.76,35.36,23.71,43.49s37.52,38.8,37.52,38.8L289.36,216l-5.68,11S260,197.28,251.3,183.16c-8.52-13.87-11.46-51.93-13.43-53.61s-11-3.65-13.17-2.42-4.17,7.2-4.43,12.35,5.29,35.83,9,46.47,30.17,48.1,30.17,48.1l-12.08-1-7.6,13.15s-20.88-35.7-27.42-52.8c-4.17-10.88-3.83-35.3.48-51.65C215.27,132.4,216.71,129.71,220.41,127.42Z" style="fill:#0099FB"></path><path d="M235.54,139.1c-3.36.7-10.19-3.42-12.43-8.24-.15-.33.56-3.67,1.23-7.76.4-2.48.79-5.26.95-7.82,0-.52,15.79,5,15.79,5a41,41,0,0,0-2.2,9.72,6.13,6.13,0,0,0,.05,1.06s0,.1,0,.17C239.13,133.21,239.12,138.36,235.54,139.1Z" style="fill:#d3766a"></path><path d="M238.93,131a1,1,0,0,1,0,.17,10.09,10.09,0,0,1-1.64,0c-9.43-.83-11.15-12.82-11.43-15.84,2.82.59,15.22,4.91,15.22,4.91a41,41,0,0,0-2.2,9.72A6.13,6.13,0,0,0,238.93,131Z" style="fill:#263238"></path><path d="M217.22,102.06c.13,6,8.14,20.66,13.14,22.88,7.25,3.22,16.55.69,18.64-7.43,2-7.88-8.76-26.85-14.1-28.61C227,86.32,217,93.26,217.22,102.06Z" style="fill:#d3766a"></path><path d="M235.42,106.42s0,.09,0,.13c.58,1,1.07,2.23.34,3.06,0,0,0,.07,0,0C236.8,108.9,236.13,107.27,235.42,106.42Z" style="fill:#263238"></path><path d="M234,105.85c-1.69.75-.06,4.08,1.51,3.39S235.37,105.22,234,105.85Z" style="fill:#263238"></path><path d="M241.48,103.67s.1,0,.12,0c.47,1,1.19,2.17,2.29,2.06,0,0,.06,0,0,.06C242.69,106.24,241.76,104.74,241.48,103.67Z" style="fill:#263238"></path><path d="M241.87,102.14c1.6-.93,3.36,2.33,1.88,3.2S240.53,102.93,241.87,102.14Z" style="fill:#263238"></path><path d="M231.89,105c.4-.34.71-.71,1.07-1.08a2.47,2.47,0,0,0,.88-1.32.79.79,0,0,0-.53-.8,2,2,0,0,0-1.85.68,2.85,2.85,0,0,0-.93,1.84A.83.83,0,0,0,231.89,105Z" style="fill:#263238"></path><path d="M243.23,100.75c-.46.26-.92.42-1.39.63a2.54,2.54,0,0,1-1.54.37.78.78,0,0,1-.56-.77,1.9,1.9,0,0,1,1.28-1.5,2.84,2.84,0,0,1,2-.25A.84.84,0,0,1,243.23,100.75Z" style="fill:#263238"></path><path d="M239.15,116.46a1.69,1.69,0,0,0,1.16.18,2.94,2.94,0,0,0,1-.8,0,0,0,0,1,.07,0,1.55,1.55,0,0,1-1,1.2,1.22,1.22,0,0,1-1.26-.51S239.1,116.45,239.15,116.46Z" style="fill:#263238"></path><path d="M238.72,112.84a3.89,3.89,0,0,0,3.11.42,5,5,0,0,0,1.3-.56,1.18,1.18,0,0,0,.22-.14c.07,0,.14-.09.21-.15a.3.3,0,0,0,.1-.33h0a.33.33,0,0,0-.06-.1h0l-.05-.09c-.37-.8-1-2-1-2,.36,0,2.16-.06,1.94-.46a59.77,59.77,0,0,0-6.56-10,.11.11,0,0,0-.18.12c1.69,3.28,3.94,6.24,5.68,9.5a7.19,7.19,0,0,0-1.9.31c-.1.09,1.33,2.24,1.46,2.62a.06.06,0,0,1,0,0,5.38,5.38,0,0,1-4.18.64C238.67,112.68,238.62,112.79,238.72,112.84Z" style="fill:#263238"></path><path d="M242.46,112.53a4.65,4.65,0,0,1-1,2.11,2,2,0,0,1-1.1.62c-.93.19-1.32-.56-1.49-1.28a5.31,5.31,0,0,1-.11-1.17A6,6,0,0,0,242.46,112.53Z" style="fill:#263238"></path><path d="M241.42,114.64a2,2,0,0,1-1.1.62c-.93.19-1.32-.56-1.49-1.28A2.16,2.16,0,0,1,241.42,114.64Z" style="fill:#ff9cbd"></path><path d="M221.4,115.52c4.07-1.65,3.83-7.36,1.06-10.69,0,0,11.16-3.74,7.54-12.41a10.63,10.63,0,0,0,9.2.37l2.16,2.61c.92-.84.57-4.46-3.23-5.57,0,0-2.24-4.11-6.56-5.11A6.39,6.39,0,0,0,225,86.87a9.71,9.71,0,0,0-7.09,1.54,8.23,8.23,0,0,0-3.48,6.69s-4.71,3.53-3.79,7.65a8.51,8.51,0,0,0,4,5.67s-.6,2.08,1.61,4.91C217.68,115.14,220.17,116,221.4,115.52Z" style="fill:#263238"></path><path d="M229.41,91.79a11.48,11.48,0,0,1,1,2A9.77,9.77,0,0,1,231,96a5.93,5.93,0,0,1-.95,4.21,9.52,9.52,0,0,1-3.39,2.86c-.69.31-1.36.68-2.07,1s-1.44.51-2.16.8c.75-.17,1.49-.37,2.24-.55s1.45-.55,2.18-.83a9.52,9.52,0,0,0,3.65-2.93,6.23,6.23,0,0,0,.91-4.58A9.34,9.34,0,0,0,229.41,91.79Z" style="fill:#263238"></path><path d="M237.19,94a12,12,0,0,1-4-.16,7.22,7.22,0,0,1-1.85-.68A8.72,8.72,0,0,1,229.66,92a5,5,0,0,0,1.44,1.52,5.47,5.47,0,0,0,2,.85,6.58,6.58,0,0,0,2.12.13A6.12,6.12,0,0,0,237.19,94Z" style="fill:#263238"></path><path d="M235.7,114.08a5.39,5.39,0,1,1,2.75-8.06h0a5.4,5.4,0,0,1-1.54,7.46A5.46,5.46,0,0,1,235.7,114.08Zm-3.28-9.52a5.28,5.28,0,0,0-1,.51,4.68,4.68,0,1,0,1-.51Z" style="fill:#0099FB"></path><path d="M246.82,108.65c-1.95.67-4.4-.72-5.63-3.25a6.51,6.51,0,0,1-.61-3.89,3.36,3.36,0,0,1,5.18-2.5,6.46,6.46,0,0,1,2.67,2.9c1.29,2.68.71,5.64-1.28,6.6ZM243,99.34l-.26.11a2.88,2.88,0,0,0-1.49,2.18,5.76,5.76,0,0,0,.55,3.45c1.12,2.32,3.36,3.57,5,2.78s2-3.32.94-5.64a5.78,5.78,0,0,0-2.36-2.58A3,3,0,0,0,243,99.34Z" style="fill:#0099FB"></path><path d="M238.56,106.66l-.66-.3c.44-1,1.74-2.63,3.54-1.93l-.26.67C239.57,104.48,238.6,106.57,238.56,106.66Z" style="fill:#0099FB"></path><path d="M218.57,118.05l-.73,0c0-.34.14-3.31,1.47-4.24s9.31-4,9.69-4.11l.25.68a91.5,91.5,0,0,0-9.52,4C218.84,115,218.59,117.24,218.57,118.05Z" style="fill:#0099FB"></path><path d="M225.46,113.69s-5.28-3.79-7.12-1.74,3.36,8.41,6.39,8.47a2.88,2.88,0,0,0,3.13-2.75Z" style="fill:#d3766a"></path><path d="M219.88,113.74s0,.07,0,.07c2.14.1,3.74,1.5,5.07,3.06a1.6,1.6,0,0,0-2.4.38s0,.11.09.08a1.76,1.76,0,0,1,2-.06,8.74,8.74,0,0,1,1.41,1.18c.14.13.41-.06.28-.23l0,0C225.57,115.77,222.53,113.07,219.88,113.74Z" style="fill:#263238"></path><path d="M239,129.15l-3.34,9.69-12.41-11.42-3.15,4s12.5,18.52,12.53,17.65l3.51-8.38,5.94,5.41-1.18-14.28Z" style="fill:#ebebeb"></path><path d="M241.92,139c-.27-2.35-.48-4.73-.86-7.06,0-.09-.15-.12-.16,0-.36,2.3.73,11.29.83,13.45l0,0c-.24-.24-5.49-4.75-5.53-4.67-.79,1.34-3.36,7.45-3.53,8-2-2.94-9.53-13.62-11.83-16.38a.08.08,0,0,0-.14.09c1.77,3.12,11.78,17.51,11.92,17.46a94.26,94.26,0,0,0,3.66-8.86c.9,1,6.22,6.12,6.22,5.76A74.37,74.37,0,0,0,241.92,139Z" style="fill:#263238"></path></g><g id="freepik--Stars--inject-311"><polygon points="143.37 119.77 148.11 118.9 149.17 113.9 150.23 118.9 154.97 119.78 150.25 120.93 149.17 125.65 148.09 120.93 143.37 119.77" style="fill:#0099FB"></polygon><polygon points="116.74 278.29 121.48 277.41 122.54 272.42 123.59 277.41 128.33 278.29 123.61 279.44 122.54 284.16 121.46 279.44 116.74 278.29" style="fill:#0099FB"></polygon><polygon points="332.17 64.2 336.91 63.33 337.97 58.33 339.02 63.33 343.76 64.21 339.05 65.36 337.97 70.08 336.89 65.36 332.17 64.2" style="fill:#0099FB"></polygon><polygon points="356.04 240.6 360.77 239.72 361.83 234.72 362.89 239.72 367.63 240.6 362.91 241.75 361.83 246.47 360.75 241.75 356.04 240.6" style="fill:#0099FB"></polygon><polygon points="208.59 349.14 213.33 348.26 214.39 343.27 215.45 348.26 220.19 349.14 215.47 350.29 214.39 355.01 213.31 350.29 208.59 349.14" style="fill:#0099FB"></polygon><polygon points="97.86 233.97 100.5 233.48 101.1 230.68 101.69 233.48 104.34 233.97 101.7 234.61 101.1 237.25 100.49 234.61 97.86 233.97" style="fill:#0099FB"></polygon><polygon points="132.06 207.25 134.71 206.76 135.3 203.97 135.89 206.76 138.54 207.25 135.9 207.9 135.3 210.54 134.69 207.9 132.06 207.25" style="fill:#0099FB"></polygon><polygon points="205.34 79.76 207.99 79.27 208.58 76.48 209.17 79.27 211.82 79.76 209.18 80.41 208.58 83.05 207.98 80.41 205.34 79.76" style="fill:#0099FB"></polygon><polygon points="317.3 317.3 319.95 316.81 320.54 314.02 321.13 316.81 323.78 317.31 321.14 317.95 320.54 320.59 319.94 317.95 317.3 317.3" style="fill:#0099FB"></polygon><polygon points="305.81 153.21 308.46 152.72 309.05 149.93 309.65 152.72 312.3 153.21 309.66 153.86 309.05 156.5 308.45 153.86 305.81 153.21" style="fill:#0099FB"></polygon><polygon points="183.47 141.94 186.12 141.45 186.71 138.66 187.3 141.45 189.95 141.94 187.31 142.58 186.71 145.22 186.1 142.58 183.47 141.94" style="fill:#0099FB"></polygon><polygon points="378.35 210.54 381 210.05 381.59 207.25 382.18 210.05 384.83 210.54 382.19 211.18 381.59 213.82 380.98 211.18 378.35 210.54" style="fill:#0099FB"></polygon><polygon points="183.09 317.3 185.74 316.81 186.33 314.02 186.92 316.81 189.57 317.31 186.93 317.95 186.33 320.59 185.73 317.95 183.09 317.3" style="fill:#0099FB"></polygon><path d="M206.72,125.72a.77.77,0,0,0,0-1.54A.77.77,0,0,0,206.72,125.72Z" style="fill:#0099FB"></path><path d="M375.81,265.13a.77.77,0,0,0,0-1.53A.77.77,0,0,0,375.81,265.13Z" style="fill:#0099FB"></path><path d="M255.3,146a.77.77,0,0,0,0-1.54A.77.77,0,0,0,255.3,146Z" style="fill:#0099FB"></path><path d="M101.84,179.79a.77.77,0,0,0,0-1.53A.77.77,0,0,0,101.84,179.79Z" style="fill:#0099FB"></path><path d="M345,183a.77.77,0,0,0,0-1.54A.77.77,0,0,0,345,183Z" style="fill:#0099FB"></path><path d="M166.55,279.82a.77.77,0,0,0,0-1.53A.77.77,0,0,0,166.55,279.82Z" style="fill:#0099FB"></path><path d="M312.82,225.86a.55.55,0,0,0,0-1.09A.55.55,0,0,0,312.82,225.86Z" style="fill:#0099FB"></path><path d="M239.24,74.71a.55.55,0,0,0,0-1.09A.55.55,0,0,0,239.24,74.71Z" style="fill:#0099FB"></path><path d="M158,143a.54.54,0,0,0,0-1.08A.54.54,0,0,0,158,143Z" style="fill:#0099FB"></path><path d="M158.51,188.21a.55.55,0,0,0,0-1.09A.55.55,0,0,0,158.51,188.21Z" style="fill:#0099FB"></path><path d="M307.63,243.54a1.47,1.47,0,0,0,0-2.94A1.47,1.47,0,0,0,307.63,243.54Z" style="fill:#0099FB"></path><path d="M309.05,85.86a1.47,1.47,0,0,0,0-2.94A1.47,1.47,0,0,0,309.05,85.86Z" style="fill:#0099FB"></path></g></svg>
